<svg width="135" height="135" viewBox="0 0 135 135" fill="none" xmlns="http://www.w3.org/2000/svg">
<rect width="134.917" height="134.503" rx="67.2515" fill="#D9D9D9"/>
<path d="M117.754 67.2507C117.754 95.0225 95.2405 117.536 67.4687 117.536C39.6969 117.536 17.1833 95.0225 17.1833 67.2507C17.1833 39.4789 39.6969 16.9653 67.4687 16.9653C95.2405 16.9653 117.754 39.4789 117.754 67.2507Z" fill="#D9D9D9"/>
<path d="M118.381 72.3412L113.665 69.0627L114.001 67.1885L118.767 70.666L125.46 70.7062L124.565 75.7098L113.599 75.8034L123.823 79.8599L123.299 82.7885L111.136 83.2033L111.438 81.5131L122.628 81.1315L112.232 77.0785L112.758 74.1333L123.378 74.0467L123.677 72.3733L118.381 72.3412Z" fill="#F05D23"/>
<path d="M106.409 94.6496L105.094 93.9367L110.505 83.953L120.967 89.6238L115.823 99.1143L114.508 98.4014L118.858 90.3756L116.033 88.8445L112.501 95.3608L111.186 94.6479L114.718 88.1316L111.026 86.1306L106.409 94.6496Z" fill="#F05D23"/>
<path d="M97.3623 104.305L96.293 103.259L104.235 95.1417L112.741 103.464L105.191 111.18L104.122 110.134L110.506 103.609L108.21 101.362L103.026 106.66L101.957 105.613L107.14 100.315L104.139 97.3788L97.3623 104.305Z" fill="#F05D23"/>
<path d="M95.0706 116.211L89.8119 107.234L91.2494 106.392L96.5081 115.369L101.07 112.697L101.826 113.988L91.2501 120.183L90.494 118.892L95.0706 116.211Z" fill="#F05D23"/>
<path d="M69.4854 114.814L69.2502 113.336L80.4651 111.551L82.3357 123.303L71.6749 125L71.4398 123.523L80.4553 122.088L79.9502 118.915L72.6303 120.08L72.3952 118.603L79.715 117.437L79.0549 113.291L69.4854 114.814Z" fill="#F05D23"/>
<path d="M65.4126 117.556L65.9811 113.241L67.6328 113.459L66.0784 125.257L58.2074 124.22C57.5894 124.139 57.0387 123.98 56.5553 123.745C56.0704 123.521 55.6752 123.223 55.3698 122.852C55.0517 122.49 54.829 122.055 54.7016 121.546C54.563 121.036 54.5359 120.461 54.6203 119.821C54.7784 118.881 55.1072 118.165 55.6067 117.67C56.095 117.174 56.7247 116.863 57.4959 116.736L55.4786 111.875L57.4169 112.13L59.2945 116.75L65.4126 117.556ZM65.2172 119.039L59.5541 118.293C58.5766 118.164 57.8267 118.26 57.3044 118.58C56.7709 118.898 56.4561 119.423 56.3599 120.153C56.2651 120.872 56.4165 121.458 56.8142 121.91C57.2103 122.374 57.8635 122.666 58.7736 122.786L64.6221 123.556L65.2172 119.039Z" fill="#F05D23"/>
<path d="M43.4152 108.311L44.0236 106.944L54.041 111.403L53.4326 112.77L49.2238 110.897L45.6012 119.035L49.8101 120.908L49.2017 122.275L39.1843 117.816L39.7927 116.449L44.0792 118.357L47.7018 110.219L43.4152 108.311Z" fill="#F05D23"/>
<path d="M39.8667 106.544L41.1558 105.074L42.4083 106.172L34.5618 115.119L33.3093 114.021L38.5553 108.039L26.1009 107.699L24.2476 106.073L30.6571 106.268L32.0047 97.0481L33.5 98.3595L32.3346 106.314L39.8667 106.544Z" fill="#F05D23"/>
<path d="M27.1035 95.9551L31.1021 95.6001L32.0621 97.185L18.8452 98.3339L17.3831 95.9202L24.5228 84.7384L25.4917 86.3378L23.3251 89.7173L27.1035 95.9551ZM25.4364 96.0904L22.433 91.1321L18.8993 96.6514L25.4364 96.0904Z" fill="#F05D23"/>
<path d="M15.8883 75.1885L17.1339 74.9162L18.546 81.3767L17.3004 81.6489L15.8883 75.1885Z" fill="#F05D23"/>
<path d="M16.4096 63.9452L21.2352 67.0591L20.9648 68.9438L16.0816 65.6327L9.39067 65.8233L10.1126 60.7918L21.0687 60.3202L10.7114 56.6186L11.134 53.6737L23.2755 52.8398L23.0316 54.5394L11.8614 55.3066L22.3918 58.9987L21.9668 61.9603L11.357 62.413L11.1155 64.0958L16.4096 63.9452Z" fill="#F05D23"/>
<path d="M27.5989 41.2374L28.9372 41.9061L23.8611 52.0645L13.2161 46.7453L18.0414 37.0888L19.3796 37.7575L15.299 45.9237L18.1732 47.3599L21.4863 40.7296L22.8245 41.3983L19.5114 48.0286L23.2676 49.9055L27.5989 41.2374Z" fill="#F05D23"/>
<path d="M36.2994 31.2802L37.4024 32.2909L29.7301 40.6632L20.9568 32.6234L28.25 24.6647L29.3529 25.6754L23.1853 32.4058L25.5541 34.5766L30.5617 29.112L31.6646 30.1227L26.657 35.5873L29.7528 38.4242L36.2994 31.2802Z" fill="#F05D23"/>
<path d="M38.0671 19.3545L43.6199 28.1527L42.211 29.0419L36.6582 20.2436L32.1872 23.0654L31.3888 21.8003L41.7541 15.2585L42.5525 16.5236L38.0671 19.3545Z" fill="#F05D23"/>
<path d="M63.7003 19.8054L63.9862 21.2738L52.8395 23.4441L50.5653 11.7634L61.1613 9.70038L61.4472 11.1688L52.4865 12.9135L53.1005 16.0672L60.3759 14.6507L60.6618 16.1192L53.3864 17.5357L54.1889 21.6573L63.7003 19.8054Z" fill="#F05D23"/>
<path d="M67.5431 16.8827L67.1242 21.2145L65.4659 21.0542L66.6113 9.20943L74.5135 9.97355C75.1339 10.0335 75.6898 10.1727 76.181 10.391C76.6734 10.598 77.0786 10.882 77.3967 11.243C77.7271 11.5937 77.9648 12.0209 78.1096 12.5245C78.2658 13.0292 78.3128 13.6031 78.2506 14.2461C78.1251 15.1904 77.8213 15.9182 77.3392 16.4295C76.8684 16.9419 76.2498 17.2749 75.4834 17.4285L77.6677 22.217L75.7218 22.0288L73.6854 17.4767L67.5431 16.8827ZM67.6871 15.3937L73.3726 15.9435C74.354 16.0384 75.1001 15.9169 75.611 15.5792C76.1332 15.2426 76.4297 14.7076 76.5006 13.9744C76.5704 13.2524 76.3988 12.6722 75.9858 12.2338C75.5738 11.784 74.9109 11.515 73.9972 11.4266L68.1256 10.8588L67.6871 15.3937Z" fill="#F05D23"/>
<path d="M90.1085 25.4166L89.5412 26.8009L79.3951 22.6429L79.9624 21.2587L84.2253 23.0056L87.6033 14.7629L83.3403 13.016L83.9076 11.6317L94.0537 15.7896L93.4864 17.1739L89.1448 15.3947L85.7669 23.6374L90.1085 25.4166Z" fill="#F05D23"/>
<path d="M93.7193 27.0333L92.4791 28.5445L91.1912 27.4876L98.7406 18.2888L100.028 19.3457L94.9811 25.4958L107.44 25.4284L109.345 26.9922L102.933 27.0077L101.888 36.2664L100.351 35.0046L101.255 27.0159L93.7193 27.0333Z" fill="#F05D23"/>
<path d="M106.818 37.1617L102.833 37.6486L101.821 36.0963L114.993 34.5114L116.534 36.8755L109.768 48.2871L108.747 46.7205L110.8 43.2714L106.818 37.1617ZM108.48 36.9714L111.645 41.8278L114.995 36.1948L108.48 36.9714Z" fill="#F05D23"/>
<path d="M118.737 57.5045L117.501 57.8193L115.869 51.411L117.104 51.0962L118.737 57.5045Z" fill="#F05D23"/>
<path d="M41 67.3685C55.6379 67.3609 67.5 55.4338 67.5 40.7232C67.5 55.4338 79.3621 67.3486 94 67.3411C79.3621 67.3486 67.5 79.2758 67.5 93.9863C67.5 79.2758 55.6379 67.3609 41 67.3685Z" fill="#17161C"/>
</svg>
