<svg width="206" height="204" viewBox="0 0 206 204" fill="none" xmlns="http://www.w3.org/2000/svg">
<rect width="205.065" height="203.999" rx="102" fill="#D9D9D9"/>
<path d="M189.907 115.858L176.01 110.753L176.645 106.761L193.156 104.742L192.79 107.042L177.506 108.91L191.667 114.103L191.039 118.05L176.106 118.586L189.926 125.043L189.56 127.343L174.493 120.295L175.117 116.37L189.907 115.858Z" fill="#17161C"/>
<path d="M178.834 131.642L171.928 128.348L172.891 126.327L187.322 133.21L186.359 135.231L180.649 132.507L175.521 143.271L181.231 145.995L180.268 148.015L165.838 141.132L166.801 139.111L173.707 142.405L178.834 131.642Z" fill="#17161C"/>
<path d="M165.989 149.035L163.807 144.102L165.407 142.194L172.588 158.513L170.152 161.418L152.844 157.175L154.458 155.25L159.693 156.543L165.989 149.035ZM166.883 151.098L161.878 157.066L170.425 159.172L166.883 151.098Z" fill="#17161C"/>
<path d="M153.755 173.598L145.453 162.352L147.253 161.021L155.555 172.268L161.267 168.045L162.461 169.663L149.218 179.451L148.024 177.834L153.755 173.598Z" fill="#17161C"/>
<path d="M127.894 186.932L126.461 172.196L130.334 171.035L139.318 185.033L137.087 185.702L128.771 172.744L130.239 187.755L126.41 188.903L119.447 175.683L119.628 190.937L117.396 191.606L117.207 174.971L121.014 173.83L127.894 186.932Z" fill="#17161C"/>
<path d="M95.7266 178.245L95.6956 176.235L110.951 175.999L111.198 191.986L96.6959 192.21L96.6649 190.2L108.929 190.011L108.862 185.694L98.9049 185.848L98.8739 183.838L108.831 183.685L108.744 178.044L95.7266 178.245Z" fill="#17161C"/>
<path d="M86.6567 183.275C86.1825 184.642 85.5709 185.759 84.8221 186.626C84.0587 187.488 83.1921 188.119 82.2223 188.518C81.2334 188.927 80.1608 189.119 79.0046 189.093C77.8293 189.076 76.5876 188.864 75.2795 188.456C73.9713 188.047 72.8389 187.51 71.8821 186.844C70.9063 186.189 70.1352 185.414 69.5689 184.519C68.988 183.62 68.636 182.6 68.5127 181.461C68.3704 180.332 68.4883 179.085 68.8663 177.719L68.9887 177.327C69.4539 175.989 70.0682 174.888 70.8316 174.026C71.5759 173.174 72.4402 172.55 73.4246 172.156C74.3944 171.757 75.4647 171.572 76.6354 171.603C77.7962 171.615 79.0306 171.825 80.3388 172.233C81.6469 172.642 82.7889 173.174 83.7647 173.829C84.7305 174.466 85.5061 175.227 86.0915 176.111C86.6579 177.006 87.0122 178.018 87.1545 179.147C87.2823 180.272 87.1572 181.517 86.7791 182.882L86.6567 183.275ZM75.8779 186.537C76.8808 186.85 77.8373 187.005 78.7473 187.002C79.6429 186.995 80.4629 186.82 81.2075 186.478C81.9331 186.147 82.5781 185.638 83.1427 184.953C83.6882 184.278 84.1241 183.417 84.4505 182.37C84.7633 181.367 84.8873 180.433 84.8223 179.567C84.7383 178.712 84.4944 177.934 84.0908 177.233C83.6681 176.543 83.0928 175.933 82.365 175.402C81.6181 174.882 80.7432 174.465 79.7404 174.152C78.7375 173.839 77.7882 173.686 76.8927 173.693C75.9826 173.696 75.1648 173.864 74.4393 174.195C73.6947 174.537 73.0519 175.038 72.511 175.699C71.9509 176.37 71.5122 177.214 71.1949 178.231C70.8821 179.234 70.7654 180.171 70.8449 181.041C70.9099 181.907 71.1515 182.692 71.5696 183.397C71.9688 184.112 72.5395 184.737 73.2818 185.272C74.0096 185.802 74.875 186.224 75.8779 186.537Z" fill="#17161C"/>
<path d="M64.8715 173.985L68.4351 167.999L70.3577 169.145L62.179 182.883L49.7994 175.504L50.8276 173.777L61.2845 180.01L63.8433 175.712L55.3679 170.66L56.396 168.933L64.8715 173.985Z" fill="#17161C"/>
<path d="M50.6507 164.5L55.3927 159.397L57.0315 160.922L46.148 172.634L35.5967 162.817L36.9649 161.344L45.8775 169.637L49.2825 165.973L42.0587 159.251L43.4269 157.779L50.6507 164.5Z" fill="#17161C"/>
<path d="M35.3916 138.742L37.0463 137.601L45.6991 150.168L32.536 159.243L24.3108 147.297L25.9655 146.156L32.9214 156.258L36.4754 153.808L30.8278 145.606L32.4826 144.465L38.1302 152.667L42.7749 149.465L35.3916 138.742Z" fill="#17161C"/>
<path d="M29.9948 136.192L35.4532 134.095L36.2548 136.185L21.3295 141.917L17.5096 131.958C17.2097 131.177 17.0437 130.425 17.0115 129.703C16.9651 128.987 17.0635 128.329 17.3067 127.73C17.5302 127.122 17.9012 126.58 18.4197 126.104C18.9328 125.613 19.5945 125.212 20.4047 124.901C21.6151 124.485 22.6721 124.414 23.5759 124.686C24.4742 124.945 25.2454 125.489 25.8896 126.318L30.336 120.818L31.2767 123.27L27.0256 128.451L29.9948 136.192ZM28.1185 136.912L25.3701 129.747C24.8957 128.51 24.3024 127.686 23.59 127.274C22.8723 126.849 22.0514 126.813 21.1274 127.168C20.2177 127.518 19.6231 128.072 19.3438 128.832C19.0502 129.597 19.1242 130.555 19.5659 131.707L22.4042 139.107L28.1185 136.912Z" fill="#17161C"/>
<path d="M19.9794 106.009L21.6838 105.837L22.5724 114.678L20.868 114.849L19.9794 106.009Z" fill="#17161C"/>
<path d="M15.7018 84.3506L29.3501 90.0878L28.5325 94.047L11.9471 95.3059L12.4182 93.0244L27.7713 91.8605L13.8639 86.0231L14.6722 82.1086L29.6139 82.2591L16.104 75.1744L16.5751 72.8928L31.3038 80.626L30.5001 84.5181L15.7018 84.3506Z" fill="#17161C"/>
<path d="M27.4865 69.0294L34.2259 72.6525L33.167 74.6246L19.0849 67.0539L20.1437 65.0818L25.7162 68.0777L31.3562 57.5734L25.7837 54.5775L26.8425 52.6055L40.9247 60.1762L39.8658 62.1482L33.1265 58.5251L27.4865 69.0294Z" fill="#17161C"/>
<path d="M41.0379 52.3289L42.9843 57.3603L41.2962 59.1902L34.8945 42.55L37.4654 39.7632L54.553 44.8197L52.8494 46.6664L47.6818 45.1269L41.0379 52.3289ZM40.2429 50.2264L45.5239 44.5017L37.086 41.9935L40.2429 50.2264Z" fill="#17161C"/>
<path d="M54.5016 28.2425L62.2595 39.8703L60.3983 41.1137L52.6404 29.4859L46.7338 33.4318L45.6183 31.7598L59.3116 22.612L60.4272 24.284L54.5016 28.2425Z" fill="#17161C"/>
<path d="M80.8274 16.1497L81.5326 30.9381L77.6076 31.9069L69.3237 17.4836L71.5855 16.9253L79.2526 30.2775L78.5262 15.2121L82.4068 14.2542L88.7105 27.8018L89.2809 12.5574L91.5428 11.9991L90.9125 28.6228L87.0541 29.5752L80.8274 16.1497Z" fill="#17161C"/>
<path d="M112.783 26.3151L112.713 28.3238L97.4651 27.7936L98.02 11.815L112.515 12.319L112.445 14.3278L100.187 13.9016L100.037 18.2158L109.99 18.5618L109.92 20.5706L99.9677 20.2245L99.7719 25.8627L112.783 26.3151Z" fill="#17161C"/>
<path d="M121.766 21.5703C122.306 20.2278 122.972 19.1419 123.762 18.3128C124.567 17.4889 125.463 16.9014 126.451 16.5503C127.459 16.1902 128.54 16.0514 129.693 16.1341C130.866 16.2077 132.096 16.4805 133.383 16.9525C134.669 17.4246 135.774 18.0165 136.697 18.7282C137.64 19.4309 138.372 20.2429 138.894 21.1643C139.43 22.0909 139.732 23.1261 139.799 24.27C139.886 25.4048 139.707 26.6448 139.263 27.9902L139.121 28.3762C138.591 29.6901 137.924 30.759 137.119 31.583C136.334 32.3978 135.44 32.9782 134.438 33.324C133.45 33.6751 132.372 33.8067 131.204 33.7188C130.045 33.6504 128.822 33.3802 127.536 32.9082C126.249 32.4361 125.135 31.8487 124.192 31.1461C123.259 30.4629 122.521 29.6652 121.98 28.7529C121.458 27.8316 121.154 26.8035 121.067 25.6687C120.994 24.5391 121.18 23.3016 121.624 21.9563L121.766 21.5703ZM132.691 18.8398C131.705 18.4779 130.757 18.2761 129.848 18.2345C128.953 18.1981 128.126 18.3324 127.365 18.6373C126.624 18.9331 125.955 19.4093 125.358 20.066C124.78 20.7136 124.302 21.5521 123.925 22.5815C123.564 23.568 123.394 24.4952 123.417 25.3631C123.459 26.2219 123.664 27.011 124.033 27.7302C124.422 28.4404 124.966 29.0782 125.667 29.6436C126.388 30.1999 127.241 30.659 128.228 31.0209C129.214 31.3829 130.154 31.582 131.049 31.6184C131.958 31.66 132.783 31.5329 133.524 31.237C134.285 30.9321 134.951 30.463 135.524 29.8297C136.116 29.1874 136.595 28.3658 136.962 27.365C137.324 26.3785 137.486 25.4487 137.449 24.5755C137.427 23.7076 137.224 22.9114 136.841 22.1869C136.477 21.4534 135.938 20.8013 135.222 20.2307C134.521 19.6653 133.678 19.2017 132.691 18.8398Z" fill="#17161C"/>
<path d="M143.22 31.8983L139.375 37.7074L137.51 36.4708L146.334 23.1386L158.348 31.1005L157.238 32.7766L147.091 26.0512L144.33 30.2223L152.554 35.6732L151.445 37.3493L143.22 31.8983Z" fill="#17161C"/>
<path d="M157.132 42.1427L152.155 47.0162L150.59 45.4158L162.014 34.2306L172.09 44.5353L170.654 45.9414L162.143 37.2372L158.568 40.7365L165.467 47.7914L164.031 49.1975L157.132 42.1427Z" fill="#17161C"/>
<path d="M170.978 68.243L169.275 69.31L161.183 56.3753L174.732 47.8879L182.424 60.1836L180.721 61.2506L174.216 50.8525L170.558 53.1441L175.839 61.5865L174.136 62.6535L168.854 54.2111L164.073 57.2059L170.978 68.243Z" fill="#17161C"/>
<path d="M176.339 71.141L170.791 72.9889L170.085 70.865L185.253 65.8122L188.62 75.9332C188.885 76.7279 189.017 77.4864 189.016 78.2087C189.03 78.9263 188.903 79.5788 188.633 80.1662C188.382 80.7633 187.987 81.2881 187.447 81.7407C186.913 82.2077 186.234 82.5783 185.41 82.8526C184.182 83.2135 183.123 83.2373 182.233 82.9241C181.347 82.6253 180.601 82.0472 179.995 81.1899L175.305 86.4836L174.476 83.9913L178.956 79.0081L176.339 71.141ZM178.246 70.5058L180.668 77.7878C181.086 79.0448 181.642 79.8949 182.335 80.3381C183.033 80.7957 183.851 80.8682 184.79 80.5554C185.715 80.2474 186.334 79.7202 186.647 78.9739C186.975 78.2227 186.944 77.2619 186.555 76.0916L184.053 68.5713L178.246 70.5058Z" fill="#17161C"/>
<path d="M185.015 101.951L183.305 102.043L182.825 93.1713L184.536 93.0788L185.015 101.951Z" fill="#17161C"/>
<path d="M65.1768 107.67C86.4961 107.659 103.773 90.2767 103.773 68.8378C103.773 90.2767 121.049 107.641 142.369 107.63C121.049 107.641 103.773 125.024 103.773 146.462C103.773 125.024 86.4961 107.659 65.1768 107.67Z" fill="#F05D23"/>
</svg>
