<svg width="40" height="40" viewBox="0 0 40 40" fill="none" xmlns="http://www.w3.org/2000/svg">
<g id="Apple" clip-path="url(#clip0_150_195)">
<path id="Vector" d="M33.2699 0.088623H6.63403C2.97016 0.088623 0 3.05878 0 6.72265V33.3586C0 37.0224 2.97016 39.9926 6.63403 39.9926H33.2699C36.9338 39.9926 39.904 37.0224 39.904 33.3586V6.72265C39.904 3.05878 36.9338 0.088623 33.2699 0.088623Z" fill="#D9D9D9"/>
<path id="Vector_2" d="M32.3914 16.7758V11.4546C25.4357 11.1609 25.2119 4.84011 25.2119 4.24617V4.20142H19.8357V24.9259C19.8351 25.8215 19.5521 26.694 19.027 27.4195C18.5019 28.1449 17.7613 28.6863 16.9108 28.9666C16.0602 29.2468 15.1429 29.2518 14.2894 28.9806C13.4358 28.7095 12.6895 28.1761 12.1567 27.4563C11.6238 26.7365 11.3315 25.867 11.3213 24.9715C11.3111 24.076 11.5836 23.2001 12.0999 22.4684C12.6163 21.7367 13.3503 21.1864 14.1974 20.8959C15.0445 20.6055 15.9617 20.5895 16.8184 20.8504V15.3623C16.4066 15.3094 15.9917 15.2829 15.5765 15.283C13.6693 15.283 11.805 15.8485 10.2192 16.9081C8.63342 17.9677 7.39747 19.4737 6.66762 21.2357C5.93777 22.9977 5.74681 24.9366 6.11888 26.8071C6.49096 28.6777 7.40935 30.3959 8.75794 31.7444C10.1065 33.093 11.8247 34.0114 13.6953 34.3835C15.5658 34.7556 17.5047 34.5646 19.2667 33.8348C21.0287 33.1049 22.5347 31.869 23.5943 30.2832C24.6538 28.6974 25.2194 26.8331 25.2194 24.9259C25.2194 24.7907 25.2194 24.6564 25.2101 24.5231V14.318C27.6856 16.5828 32.3914 16.7758 32.3914 16.7758Z" fill="#17161C"/>
<path id="Vector_3" d="M33.9734 18.0886V12.7646C27.0168 12.4709 26.794 6.15017 26.794 5.55623V5.51147H21.4177V26.236C21.4173 27.1316 21.1345 28.0042 20.6095 28.7298C20.0845 29.4554 19.344 29.9969 18.4935 30.2773C17.6429 30.5578 16.7255 30.5628 15.8719 30.2918C15.0183 30.0207 14.272 29.4874 13.739 28.7677C13.206 28.0479 12.9136 27.1784 12.9033 26.2829C12.8931 25.3873 13.1655 24.5113 13.6818 23.7796C14.1982 23.0478 14.9322 22.4975 15.7793 22.207C16.6265 21.9164 17.5437 21.9005 18.4005 22.1614V16.6723C17.9876 16.6206 17.5718 16.5954 17.1557 16.5968C15.2485 16.5973 13.3843 17.1635 11.7988 18.2235C10.2133 19.2836 8.9778 20.79 8.24849 22.5523C7.51918 24.3146 7.32884 26.2535 7.70153 28.124C8.07422 29.9945 8.99321 31.7124 10.3423 33.0605C11.6913 34.4087 13.4099 35.3265 15.2806 35.6979C17.1513 36.0694 19.0901 35.8777 20.8519 35.1472C22.6137 34.4167 24.1193 33.1802 25.1783 31.594C26.2373 30.0078 26.8021 28.1432 26.8014 26.236C26.8014 26.1008 26.8014 25.9665 26.7921 25.8332V15.628C29.2676 17.8928 33.9734 18.0886 33.9734 18.0886Z" fill="#17161C"/>
<path id="Vector_4" d="M25.3438 5.51147C25.603 6.92313 26.3601 9.13012 28.5671 10.4215C26.8803 8.45693 26.7955 5.92173 26.7955 5.55623V5.51147H25.3438Z" fill="#17161C"/>
<path id="Vector_5" d="M33.9732 18.0886V12.7646C33.4407 12.7451 32.9106 12.6827 32.3881 12.5781V16.7693C32.3881 16.7693 27.6823 16.5763 25.2086 14.3115V24.5138C25.2142 24.6471 25.218 24.7814 25.218 24.9166C25.2177 26.6612 24.7442 28.3731 23.8479 29.8699C22.9516 31.3667 21.666 32.5923 20.1282 33.4161C18.5903 34.24 16.8578 34.6312 15.1151 34.5482C13.3725 34.4651 11.685 33.9109 10.2324 32.9446C11.5683 34.3241 13.2856 35.2734 15.1644 35.6707C17.0432 36.068 18.9979 35.8952 20.7779 35.1745C22.5578 34.4538 24.0821 33.218 25.1552 31.6255C26.2283 30.033 26.8015 28.1563 26.8012 26.2359C26.8012 26.1007 26.8012 25.9665 26.7919 25.8331V15.628C29.2674 17.8928 33.9732 18.0886 33.9732 18.0886Z" fill="#17161C"/>
<path id="Vector_6" d="M16.8174 20.842C15.7908 20.5289 14.6839 20.6148 13.7179 21.0825C12.752 21.5503 11.9981 22.3654 11.6072 23.3649C11.2162 24.3644 11.2169 25.4746 11.6091 26.4737C12.0013 27.4727 12.7562 28.2868 13.7227 28.7534C13.1945 28.0319 12.9067 27.1625 12.9001 26.2684C12.8935 25.3742 13.1684 24.5007 13.6859 23.7715C14.2033 23.0422 14.9371 22.4943 15.7833 22.2053C16.6295 21.9164 17.5452 21.9009 18.4006 22.1613V16.6723C17.9877 16.6205 17.5719 16.5953 17.1558 16.5967C17.0411 16.5967 16.9283 16.5967 16.8146 16.6033L16.8174 20.842Z" fill="#17161C"/>
</g>
<defs>
<clipPath id="clip0_150_195">
<rect width="39.9068" height="40" fill="white"/>
</clipPath>
</defs>
</svg>
