<svg width="24" height="24" viewBox="0 0 24 24" fill="none" xmlns="http://www.w3.org/2000/svg">
<path d="M16.4284 18.0713C16.9158 18.0713 17.3922 18.2158 17.7975 18.4866C18.2027 18.7574 18.5186 19.1422 18.7051 19.5925C18.8916 20.0428 18.9404 20.5383 18.8453 21.0163C18.7503 21.4944 18.5156 21.9335 18.1709 22.2781C17.8263 22.6227 17.3872 22.8574 16.9092 22.9525C16.4311 23.0476 15.9357 22.9988 15.4854 22.8123C15.0351 22.6258 14.6502 22.3099 14.3794 21.9047C14.1087 21.4994 13.9641 21.023 13.9641 20.5356C13.9641 19.882 14.2238 19.2552 14.6859 18.7931C15.148 18.3309 15.7748 18.0713 16.4284 18.0713ZM16.4284 21.357C16.5909 21.357 16.7497 21.3088 16.8848 21.2186C17.0199 21.1283 17.1251 21 17.1873 20.8499C17.2495 20.6998 17.2658 20.5347 17.2341 20.3753C17.2024 20.216 17.1241 20.0696 17.0093 19.9547C16.8944 19.8399 16.748 19.7616 16.5887 19.7299C16.4293 19.6982 16.2642 19.7145 16.1141 19.7767C15.964 19.8388 15.8357 19.9441 15.7454 20.0792C15.6552 20.2143 15.607 20.3731 15.607 20.5356C15.607 20.7534 15.6935 20.9624 15.8476 21.1164C16.0016 21.2705 16.2106 21.357 16.4284 21.357Z" fill="#D9D9D9"/>
<path d="M6.57124 18.0713C7.05863 18.0713 7.53507 18.2158 7.94032 18.4866C8.34557 18.7574 8.66142 19.1422 8.84794 19.5925C9.03445 20.0428 9.08326 20.5383 8.98817 21.0163C8.89309 21.4944 8.65839 21.9335 8.31375 22.2781C7.96911 22.6227 7.53002 22.8574 7.05199 22.9525C6.57397 23.0476 6.07848 22.9988 5.62819 22.8123C5.17791 22.6258 4.79304 22.3099 4.52226 21.9047C4.25148 21.4994 4.10695 21.023 4.10695 20.5356C4.10695 19.882 4.36658 19.2552 4.82872 18.7931C5.29087 18.3309 5.91767 18.0713 6.57124 18.0713ZM6.57124 21.357C6.7337 21.357 6.89251 21.3088 7.0276 21.2186C7.16268 21.1283 7.26796 21 7.33014 20.8499C7.39231 20.6998 7.40858 20.5347 7.37688 20.3753C7.34519 20.216 7.26695 20.0696 7.15207 19.9547C7.0372 19.8399 6.89083 19.7616 6.73149 19.7299C6.57215 19.6982 6.40699 19.7145 6.25689 19.7767C6.10679 19.8388 5.9785 19.9441 5.88824 20.0792C5.79798 20.2143 5.74981 20.3731 5.74981 20.5356C5.74981 20.7534 5.83635 20.9624 5.9904 21.1164C6.14445 21.2705 6.35338 21.357 6.57124 21.357Z" fill="#D9D9D9"/>
<path d="M19.0734 3.28571L19.4266 1.86464C19.5603 1.3319 19.8681 0.85908 20.3011 0.521256C20.7342 0.183431 21.2677 -3.14543e-05 21.817 4.04494e-09H22.9998V1.64286H21.817C21.6293 1.63739 21.4455 1.69636 21.296 1.80995C21.1465 1.92353 21.0405 2.08489 20.9955 2.26714L18.0712 14.1614L17.7673 15.3854C17.6327 15.9222 17.3212 16.3981 16.8831 16.7364C16.445 17.0746 15.9058 17.2556 15.3523 17.25H4.10696V15.6071H15.3523C15.54 15.6126 15.7238 15.5536 15.8733 15.4401C16.0227 15.3265 16.1288 15.1651 16.1737 14.9829L16.2723 14.5721L4.10696 11.7054C3.6658 11.6028 3.26144 11.3806 2.93829 11.0633C2.61514 10.7459 2.3857 10.3457 2.27518 9.90643L0.632318 3.28571H19.0734ZM3.83589 9.51214C3.87317 9.65925 3.95047 9.79315 4.05921 9.899C4.16796 10.0048 4.3039 10.0785 4.45196 10.1118L16.6502 12.9786L18.6627 4.92857H2.6941L3.83589 9.51214Z" fill="#D9D9D9"/>
</svg>
