<svg width="452" height="405" viewBox="0 0 452 405" fill="none" xmlns="http://www.w3.org/2000/svg">
<g clip-path="url(#clip0_1_950)">
<path d="M378.497 9.18655L451.267 0.36377L392.584 30.4457L377.494 11.6476C376.551 10.4725 376.998 9.36961 378.497 9.18881V9.18655Z" fill="#F05D23"/>
<path d="M451.267 0.36377L416.159 57.4746C415.37 58.7605 414 58.8192 413.1 57.6079L397.271 36.2945L451.267 0.36377Z" fill="#F05D23"/>
<path d="M392.584 30.4458L391.397 45.4156L397.271 36.2967L451.267 0.36377L392.584 30.4458Z" fill="#BF400E"/>
<path d="M400.456 40.584L391.397 45.4157L397.271 36.2969L400.456 40.584Z" fill="#AF3200"/>
<path d="M397.3 36.7058C397.158 36.7171 397.015 36.6516 396.929 36.525C396.803 36.3375 396.855 36.0821 397.042 35.9578L445.032 4.02268L392.77 30.8119C392.566 30.9159 392.32 30.8345 392.218 30.6334C392.114 30.4323 392.195 30.1859 392.397 30.082L451.079 0L451.493 0.705099L397.497 36.6358C397.436 36.6765 397.368 36.6991 397.298 36.7036L397.3 36.7058Z" fill="#AF3200"/>
<path d="M199.402 224.471C198.403 224.609 197.406 224.735 196.41 224.848C196.134 224.88 195.923 225.363 195.938 225.928C195.952 226.475 196.173 226.896 196.437 226.896C196.447 226.896 196.456 226.896 196.465 226.896C197.465 226.783 198.467 226.656 199.469 226.518C199.745 226.48 199.953 225.992 199.935 225.427C199.916 224.862 199.68 224.437 199.402 224.473V224.471Z" fill="#F05D23"/>
<path d="M205.378 223.499C204.382 223.684 203.385 223.858 202.391 224.021C202.115 224.066 201.91 224.559 201.932 225.123C201.953 225.659 202.171 226.068 202.431 226.068C202.444 226.068 202.457 226.068 202.471 226.066C203.469 225.903 204.469 225.729 205.468 225.544C205.743 225.492 205.946 224.995 205.922 224.43C205.897 223.867 205.657 223.46 205.378 223.501V223.499Z" fill="#F05D23"/>
<path d="M175.436 225.444C174.436 225.388 173.438 225.318 172.44 225.236C172.169 225.227 171.931 225.655 171.92 226.22C171.909 226.785 172.125 227.261 172.4 227.284C173.401 227.365 174.404 227.435 175.408 227.494H175.423C175.693 227.494 175.915 227.053 175.922 226.498C175.93 225.933 175.713 225.46 175.436 225.444Z" fill="#F05D23"/>
<path d="M252.477 205.683C251.513 206.235 250.548 206.775 249.585 207.304C249.318 207.451 249.159 208.011 249.231 208.558C249.29 209.017 249.493 209.32 249.714 209.32C249.757 209.32 249.8 209.308 249.844 209.284C250.811 208.755 251.778 208.212 252.746 207.659C253.012 207.507 253.168 206.942 253.094 206.395C253.02 205.851 252.743 205.53 252.477 205.683Z" fill="#F05D23"/>
<path d="M211.34 222.244C210.346 222.477 209.353 222.699 208.361 222.909C208.087 222.968 207.886 223.469 207.914 224.034C207.941 224.563 208.158 224.954 208.412 224.954C208.429 224.954 208.446 224.954 208.464 224.95C209.46 224.739 210.458 224.518 211.455 224.283C211.73 224.217 211.926 223.711 211.896 223.148C211.864 222.586 211.613 222.179 211.342 222.247L211.34 222.244Z" fill="#F05D23"/>
<path d="M187.424 225.542C186.423 225.582 185.425 225.612 184.427 225.628C184.15 225.632 183.929 226.095 183.931 226.66C183.933 227.223 184.157 227.677 184.432 227.677H184.436C185.438 227.662 186.441 227.632 187.445 227.592C187.722 227.58 187.942 227.112 187.936 226.545C187.931 225.978 187.708 225.549 187.425 225.54L187.424 225.542Z" fill="#F05D23"/>
<path d="M181.429 225.641C180.429 225.632 179.43 225.612 178.433 225.58C178.16 225.594 177.928 226.023 177.924 226.588C177.92 227.155 178.14 227.621 178.416 227.63C179.418 227.661 180.421 227.682 181.425 227.691H181.427C181.703 227.691 181.927 227.234 181.928 226.669C181.928 226.102 181.706 225.643 181.429 225.641Z" fill="#F05D23"/>
<path d="M217.288 220.703C216.296 220.983 215.305 221.252 214.316 221.508C214.043 221.578 213.848 222.091 213.883 222.653C213.915 223.171 214.13 223.551 214.378 223.551C214.399 223.551 214.42 223.548 214.442 223.541C215.435 223.284 216.429 223.015 217.425 222.732C217.698 222.656 217.89 222.138 217.852 221.578C217.814 221.017 217.561 220.622 217.288 220.703Z" fill="#F05D23"/>
<path d="M246.684 208.857C245.714 209.365 244.744 209.862 243.775 210.346C243.506 210.479 243.342 211.035 243.408 211.585C243.464 212.052 243.668 212.366 243.893 212.366C243.932 212.366 243.973 212.357 244.013 212.337C244.985 211.851 245.958 211.354 246.932 210.843C247.2 210.703 247.361 210.145 247.293 209.596C247.225 209.049 246.952 208.717 246.684 208.857Z" fill="#F05D23"/>
<path d="M240.86 211.767C239.885 212.231 238.911 212.683 237.936 213.123C237.666 213.245 237.496 213.792 237.556 214.346C237.608 214.825 237.814 215.151 238.045 215.151C238.08 215.151 238.116 215.142 238.153 215.126C239.13 214.685 240.109 214.231 241.088 213.765C241.357 213.636 241.525 213.085 241.462 212.536C241.399 211.984 241.13 211.641 240.86 211.767Z" fill="#F05D23"/>
<path d="M235.006 214.411C234.026 214.83 233.046 215.239 232.068 215.632C231.796 215.743 231.62 216.28 231.674 216.836C231.721 217.324 231.93 217.663 232.165 217.663C232.197 217.663 232.23 217.657 232.262 217.643C233.244 217.248 234.227 216.839 235.211 216.418C235.482 216.303 235.656 215.758 235.599 215.205C235.542 214.651 235.277 214.296 235.006 214.409V214.411Z" fill="#F05D23"/>
<path d="M223.217 218.884C222.229 219.212 221.242 219.526 220.256 219.829C219.982 219.912 219.793 220.434 219.835 220.995C219.873 221.503 220.086 221.87 220.33 221.87C220.354 221.87 220.379 221.865 220.405 221.858C221.395 221.553 222.385 221.237 223.377 220.909C223.65 220.819 223.835 220.292 223.792 219.734C223.748 219.176 223.491 218.785 223.218 218.884H223.217Z" fill="#F05D23"/>
<path d="M229.124 216.785C228.14 217.157 227.155 217.519 226.173 217.869C225.901 217.966 225.719 218.498 225.766 219.056C225.808 219.555 226.02 219.905 226.26 219.905C226.288 219.905 226.317 219.901 226.346 219.89C227.332 219.539 228.32 219.176 229.307 218.8C229.579 218.696 229.758 218.163 229.709 217.605C229.658 217.049 229.398 216.676 229.125 216.782L229.124 216.785Z" fill="#F05D23"/>
<path d="M109.738 215.715C108.752 216.165 107.764 216.685 106.804 217.259C106.538 217.417 106.386 217.987 106.463 218.529C106.527 218.976 106.727 219.268 106.943 219.268C106.99 219.268 107.037 219.254 107.083 219.227C108.022 218.667 108.989 218.158 109.954 217.718C110.225 217.593 110.395 217.047 110.334 216.493C110.274 215.939 110.006 215.593 109.736 215.715H109.738Z" fill="#F05D23"/>
<path d="M115.714 213.77C114.704 213.973 113.695 214.24 112.712 214.559C112.439 214.647 112.253 215.173 112.296 215.731C112.334 216.238 112.547 216.597 112.79 216.597C112.816 216.597 112.842 216.593 112.868 216.583C113.832 216.272 114.821 216.012 115.812 215.813C116.087 215.756 116.289 215.255 116.261 214.692C116.234 214.129 115.992 213.734 115.714 213.772V213.77Z" fill="#F05D23"/>
<path d="M127.804 213.98C126.788 213.759 125.773 213.587 124.788 213.465C124.514 213.422 124.275 213.86 124.259 214.428C124.242 214.993 124.453 215.478 124.729 215.512C125.698 215.632 126.697 215.802 127.699 216.021C127.717 216.025 127.734 216.028 127.752 216.028C128.005 216.028 128.222 215.637 128.25 215.11C128.278 214.547 128.08 214.041 127.805 213.982L127.804 213.98Z" fill="#F05D23"/>
<path d="M121.764 213.243C120.742 213.218 119.727 213.252 118.735 213.338C118.459 213.363 118.244 213.84 118.256 214.407C118.267 214.959 118.489 215.388 118.756 215.388C118.763 215.388 118.77 215.388 118.777 215.388C119.751 215.304 120.749 215.268 121.752 215.295H121.757C122.031 215.295 122.254 214.846 122.258 214.283C122.262 213.716 122.04 213.252 121.764 213.246V213.243Z" fill="#F05D23"/>
<path d="M98.3862 224.204C98.2571 224.342 98.1291 224.493 98 224.635V226.972C98.2836 226.651 98.566 226.326 98.8507 226.021C99.0957 225.758 99.1895 225.137 99.0615 224.635C98.9335 224.134 98.63 223.939 98.3862 224.204Z" fill="#F05D23"/>
<path d="M103.925 219.187C102.978 219.894 102.032 220.674 101.115 221.505C100.862 221.736 100.748 222.339 100.86 222.857C100.943 223.241 101.126 223.467 101.318 223.467C101.385 223.467 101.454 223.438 101.52 223.379C102.417 222.568 103.342 221.804 104.269 221.112C104.528 220.918 104.662 220.33 104.568 219.797C104.473 219.266 104.186 218.99 103.925 219.184V219.187Z" fill="#F05D23"/>
<path d="M157.493 223.09C156.498 222.884 155.503 222.667 154.513 222.439C154.239 222.369 153.991 222.78 153.959 223.343C153.928 223.906 154.125 224.412 154.4 224.475C155.395 224.706 156.393 224.925 157.393 225.128C157.41 225.133 157.427 225.133 157.443 225.133C157.697 225.133 157.914 224.74 157.941 224.211C157.968 223.648 157.768 223.144 157.493 223.088V223.09Z" fill="#F05D23"/>
<path d="M169.447 224.956C168.447 224.85 167.45 224.73 166.454 224.601C166.181 224.568 165.94 224.995 165.922 225.56C165.905 226.125 166.114 226.613 166.39 226.649C167.39 226.78 168.392 226.9 169.395 227.006C169.404 227.006 169.412 227.006 169.421 227.006C169.686 227.006 169.907 226.581 169.921 226.034C169.935 225.469 169.724 224.986 169.448 224.956H169.447Z" fill="#F05D23"/>
<path d="M151.536 221.713C150.543 221.458 149.553 221.191 148.564 220.913C148.289 220.83 148.038 221.228 148 221.79C147.963 222.351 148.153 222.868 148.428 222.945C149.42 223.225 150.415 223.492 151.412 223.747C151.433 223.754 151.454 223.756 151.475 223.756C151.723 223.756 151.939 223.377 151.971 222.859C152.005 222.297 151.811 221.786 151.536 221.713Z" fill="#F05D23"/>
<path d="M163.464 224.172C162.467 224.016 161.47 223.849 160.477 223.668C160.204 223.621 159.959 224.037 159.935 224.599C159.91 225.164 160.114 225.662 160.389 225.711C161.387 225.892 162.386 226.059 163.388 226.217C163.401 226.217 163.414 226.22 163.427 226.22C163.686 226.22 163.906 225.811 163.926 225.273C163.947 224.708 163.74 224.215 163.464 224.172Z" fill="#F05D23"/>
<path d="M139.681 218.073C138.695 217.72 137.712 217.354 136.731 216.977C136.459 216.871 136.198 217.239 136.147 217.795C136.096 218.351 136.275 218.886 136.546 218.99C137.531 219.368 138.518 219.736 139.507 220.091C139.536 220.102 139.566 220.107 139.595 220.107C139.833 220.107 140.045 219.756 140.087 219.257C140.134 218.699 139.952 218.168 139.68 218.071L139.681 218.073Z" fill="#F05D23"/>
<path d="M133.784 215.811C132.785 215.42 131.782 215.069 130.805 214.769C130.528 214.685 130.277 215.069 130.236 215.63C130.195 216.19 130.384 216.712 130.656 216.796C131.621 217.092 132.609 217.438 133.597 217.824C133.629 217.835 133.66 217.842 133.691 217.842C133.926 217.842 134.136 217.499 134.182 217.008C134.233 216.452 134.056 215.915 133.783 215.808L133.784 215.811Z" fill="#F05D23"/>
<path d="M145.597 220.041C144.607 219.736 143.621 219.422 142.635 219.094C142.362 219.003 142.106 219.383 142.06 219.941C142.016 220.5 142.202 221.026 142.474 221.117C143.463 221.444 144.454 221.763 145.448 222.068C145.473 222.075 145.498 222.079 145.523 222.079C145.767 222.079 145.98 221.713 146.017 221.207C146.058 220.646 145.87 220.124 145.597 220.041Z" fill="#F05D23"/>
<path d="M193.416 225.151C192.416 225.241 191.418 225.318 190.42 225.381C190.144 225.399 189.927 225.872 189.936 226.439C189.945 226.993 190.166 227.431 190.436 227.431H190.452C191.453 227.366 192.455 227.287 193.459 227.198C193.735 227.174 193.949 226.694 193.937 226.129C193.924 225.564 193.696 225.137 193.415 225.149L193.416 225.151Z" fill="#F05D23"/>
<path d="M348.975 109.135C348.16 110.328 347.343 111.51 346.528 112.685C346.302 113.011 346.247 113.65 346.406 114.114C346.503 114.398 346.658 114.55 346.816 114.55C346.915 114.55 347.016 114.489 347.103 114.364C347.922 113.187 348.739 112.001 349.557 110.805C349.782 110.475 349.834 109.835 349.674 109.374C349.513 108.913 349.201 108.807 348.975 109.137V109.135Z" fill="#F05D23"/>
<path d="M344.067 116.192C343.241 117.359 342.416 118.513 341.591 119.657C341.362 119.976 341.302 120.613 341.457 121.081C341.554 121.372 341.712 121.53 341.872 121.53C341.968 121.53 342.066 121.474 342.152 121.354C342.981 120.206 343.809 119.049 344.636 117.878C344.863 117.557 344.921 116.918 344.764 116.452C344.607 115.987 344.296 115.867 344.068 116.19L344.067 116.192Z" fill="#F05D23"/>
<path d="M353.827 101.91C353.022 103.13 352.215 104.341 351.409 105.544C351.185 105.876 351.135 106.518 351.298 106.976C351.397 107.252 351.549 107.399 351.703 107.399C351.805 107.399 351.909 107.336 351.997 107.202C352.806 105.998 353.614 104.784 354.422 103.559C354.644 103.223 354.691 102.581 354.527 102.124C354.362 101.67 354.049 101.575 353.826 101.91H353.827Z" fill="#F05D23"/>
<path d="M334.075 129.791C333.231 130.898 332.387 131.994 331.542 133.079C331.308 133.379 331.237 134.012 331.384 134.491C331.479 134.801 331.642 134.973 331.809 134.973C331.899 134.973 331.992 134.923 332.075 134.815C332.922 133.725 333.769 132.627 334.616 131.517C334.849 131.212 334.917 130.577 334.768 130.1C334.619 129.623 334.309 129.483 334.076 129.788L334.075 129.791Z" fill="#F05D23"/>
<path d="M358.621 94.5267C357.825 95.7742 357.028 97.0104 356.231 98.2375C356.011 98.5788 355.966 99.2206 356.132 99.6726C356.23 99.9415 356.38 100.082 356.533 100.082C356.637 100.082 356.743 100.014 356.833 99.876C357.632 98.6466 358.43 97.4036 359.229 96.1539C359.449 95.8104 359.491 95.1663 359.323 94.7166C359.155 94.2668 358.841 94.181 358.621 94.5245V94.5267Z" fill="#F05D23"/>
<path d="M339.099 123.081C338.265 124.215 337.43 125.343 336.594 126.457C336.363 126.767 336.298 127.402 336.449 127.876C336.545 128.177 336.705 128.342 336.868 128.342C336.962 128.342 337.057 128.288 337.141 128.175C337.978 127.056 338.815 125.926 339.653 124.787C339.884 124.475 339.945 123.838 339.793 123.365C339.64 122.895 339.33 122.764 339.099 123.078V123.081Z" fill="#F05D23"/>
<path d="M377.216 63.4728C376.459 64.8175 375.701 66.1531 374.942 67.4797C374.732 67.8481 374.707 68.4944 374.887 68.9261C374.986 69.1634 375.126 69.2854 375.267 69.2854C375.382 69.2854 375.498 69.204 375.593 69.0391C376.353 67.7102 377.112 66.3701 377.871 65.0209C378.08 64.6503 378.103 64.0017 377.922 63.5745C377.741 63.1474 377.424 63.0999 377.216 63.4706V63.4728Z" fill="#F05D23"/>
<path d="M381.72 55.3552C380.972 56.7224 380.224 58.0807 379.476 59.4321C379.268 59.805 379.248 60.4536 379.43 60.8785C379.53 61.109 379.668 61.2265 379.807 61.2265C379.924 61.2265 380.042 61.1429 380.138 60.9711C380.888 59.6197 381.638 58.2569 382.387 56.8852C382.594 56.5077 382.611 55.8591 382.427 55.4365C382.243 55.0139 381.926 54.9778 381.72 55.3552Z" fill="#F05D23"/>
<path d="M328.995 136.317C328.142 137.393 327.288 138.457 326.434 139.511C326.197 139.802 326.121 140.433 326.264 140.919C326.358 141.237 326.524 141.416 326.694 141.416C326.782 141.416 326.87 141.368 326.952 141.267C327.808 140.209 328.664 139.14 329.521 138.062C329.756 137.766 329.83 137.135 329.685 136.652C329.54 136.168 329.232 136.019 328.996 136.315L328.995 136.317Z" fill="#F05D23"/>
<path d="M386.867 47.1719C386.68 46.7561 386.364 46.7289 386.16 47.1109C385.424 48.4985 384.687 49.8748 383.949 51.2443C383.744 51.624 383.728 52.2726 383.915 52.6906C384.014 52.9144 384.15 53.0274 384.285 53.0274C384.406 53.0274 384.526 52.9392 384.622 52.7607C385.361 51.3889 386.099 50.0081 386.839 48.6182C387.042 48.2341 387.055 47.5855 386.868 47.1696L386.867 47.1719Z" fill="#F05D23"/>
<path d="M363.357 86.9872C362.57 88.2595 361.784 89.5228 360.996 90.7771C360.777 91.1251 360.738 91.7692 360.908 92.2167C361.006 92.4766 361.154 92.6122 361.303 92.6122C361.41 92.6122 361.518 92.5421 361.609 92.3975C362.398 91.1409 363.187 89.8754 363.976 88.5985C364.193 88.2482 364.23 87.6019 364.059 87.1589C363.888 86.716 363.572 86.6392 363.356 86.9917L363.357 86.9872Z" fill="#F05D23"/>
<path d="M368.035 79.2948C367.258 80.592 366.481 81.8802 365.703 83.1593C365.488 83.5141 365.454 84.1582 365.626 84.6011C365.725 84.8542 365.87 84.9853 366.016 84.9853C366.127 84.9853 366.237 84.913 366.33 84.7593C367.109 83.4779 367.888 82.1853 368.667 80.8858C368.881 80.5287 368.913 79.8824 368.739 79.444C368.564 79.0055 368.249 78.94 368.035 79.2971V79.2948Z" fill="#F05D23"/>
<path d="M372.654 71.4547C371.887 72.7767 371.12 74.0898 370.352 75.3915C370.139 75.7531 370.109 76.3994 370.285 76.8356C370.385 77.0796 370.527 77.2062 370.672 77.2062C370.784 77.2062 370.897 77.1294 370.99 76.9712C371.761 75.6649 372.53 74.3496 373.299 73.0231C373.511 72.657 373.537 72.0106 373.359 71.5767C373.181 71.1451 372.865 71.0886 372.654 71.4524V71.4547Z" fill="#F05D23"/>
<path d="M297.367 171.38C296.46 172.25 295.553 173.111 294.646 173.963C294.395 174.198 294.285 174.806 294.399 175.322C294.483 175.697 294.665 175.921 294.855 175.921C294.924 175.921 294.995 175.889 295.062 175.828C295.972 174.976 296.882 174.113 297.791 173.238C298.042 172.998 298.15 172.388 298.032 171.873C297.915 171.362 297.617 171.141 297.366 171.38H297.367Z" fill="#F05D23"/>
<path d="M275.269 190.447C274.331 191.166 273.393 191.873 272.455 192.567C272.195 192.759 272.061 193.347 272.155 193.88C272.229 194.296 272.421 194.556 272.626 194.556C272.683 194.556 272.74 194.535 272.796 194.495C273.737 193.796 274.679 193.089 275.62 192.368C275.879 192.169 276.01 191.579 275.913 191.048C275.816 190.519 275.527 190.248 275.269 190.447Z" fill="#F05D23"/>
<path d="M280.863 186.027C279.932 186.786 279.002 187.532 278.072 188.267C277.814 188.47 277.686 189.064 277.785 189.593C277.861 190 278.051 190.251 278.252 190.251C278.311 190.251 278.372 190.228 278.432 190.181C279.365 189.444 280.299 188.694 281.233 187.932C281.49 187.722 281.615 187.128 281.513 186.601C281.411 186.074 281.121 185.819 280.863 186.027Z" fill="#F05D23"/>
<path d="M286.412 181.374C285.489 182.171 284.566 182.956 283.644 183.731C283.388 183.945 283.265 184.544 283.37 185.069C283.45 185.466 283.636 185.706 283.834 185.706C283.897 185.706 283.961 185.681 284.023 185.629C284.949 184.852 285.875 184.063 286.802 183.265C287.057 183.046 287.176 182.445 287.069 181.923C286.962 181.401 286.667 181.154 286.413 181.376L286.412 181.374Z" fill="#F05D23"/>
<path d="M291.915 176.49C290.999 177.324 290.084 178.148 289.17 178.96C288.916 179.186 288.8 179.789 288.909 180.309C288.991 180.695 289.175 180.926 289.368 180.926C289.434 180.926 289.503 180.899 289.567 180.84C290.485 180.024 291.403 179.199 292.321 178.361C292.574 178.13 292.687 177.525 292.575 177.007C292.462 176.49 292.166 176.259 291.914 176.487L291.915 176.49Z" fill="#F05D23"/>
<path d="M323.859 142.658C322.996 143.703 322.133 144.735 321.271 145.757C321.031 146.042 320.95 146.668 321.089 147.158C321.181 147.488 321.349 147.671 321.522 147.671C321.607 147.671 321.693 147.626 321.773 147.533C322.639 146.507 323.504 145.47 324.37 144.423C324.608 144.134 324.687 143.506 324.547 143.02C324.405 142.532 324.099 142.369 323.861 142.658H323.859Z" fill="#F05D23"/>
<path d="M263.952 198.565C263 199.202 262.049 199.826 261.098 200.44C260.834 200.61 260.688 201.186 260.771 201.726C260.839 202.165 261.036 202.445 261.249 202.445C261.299 202.445 261.35 202.429 261.399 202.398C262.354 201.783 263.309 201.155 264.265 200.517C264.527 200.341 264.671 199.762 264.585 199.225C264.499 198.687 264.216 198.393 263.954 198.569L263.952 198.565Z" fill="#F05D23"/>
<path d="M269.631 194.628C268.686 195.306 267.741 195.973 266.797 196.626C266.535 196.807 266.394 197.39 266.483 197.925C266.554 198.352 266.749 198.621 266.958 198.621C267.011 198.621 267.065 198.603 267.118 198.567C268.066 197.909 269.013 197.243 269.962 196.563C270.223 196.375 270.361 195.79 270.269 195.256C270.178 194.721 269.892 194.44 269.631 194.628Z" fill="#F05D23"/>
<path d="M318.667 148.81C317.796 149.821 316.923 150.822 316.051 151.812C315.81 152.085 315.722 152.711 315.856 153.206C315.948 153.545 316.119 153.735 316.294 153.735C316.376 153.735 316.46 153.694 316.536 153.606C317.411 152.614 318.286 151.61 319.16 150.596C319.4 150.318 319.485 149.692 319.348 149.199C319.213 148.706 318.907 148.532 318.666 148.813L318.667 148.81Z" fill="#F05D23"/>
<path d="M313.421 154.761C312.541 155.739 311.659 156.707 310.778 157.663C310.535 157.927 310.441 158.548 310.57 159.048C310.659 159.396 310.834 159.595 311.012 159.595C311.092 159.595 311.171 159.556 311.246 159.475C312.13 158.517 313.014 157.547 313.898 156.566C314.141 156.298 314.231 155.674 314.1 155.177C313.968 154.679 313.664 154.494 313.421 154.763V154.761Z" fill="#F05D23"/>
<path d="M258.232 202.251C257.273 202.845 256.316 203.428 255.358 203.998C255.092 204.156 254.94 204.725 255.017 205.268C255.081 205.715 255.281 206.007 255.497 206.007C255.543 206.007 255.591 205.993 255.637 205.966C256.598 205.394 257.559 204.809 258.521 204.212C258.786 204.047 258.935 203.475 258.856 202.933C258.775 202.391 258.496 202.086 258.231 202.248L258.232 202.251Z" fill="#F05D23"/>
<path d="M302.77 166.051C301.872 166.96 300.974 167.857 300.074 168.743C299.825 168.989 299.72 169.602 299.84 170.112C299.926 170.478 300.105 170.693 300.292 170.693C300.364 170.693 300.438 170.661 300.508 170.591C301.409 169.703 302.311 168.804 303.212 167.891C303.461 167.64 303.562 167.025 303.44 166.517C303.317 166.008 303.017 165.8 302.769 166.051H302.77Z" fill="#F05D23"/>
<path d="M308.123 160.512C307.232 161.457 306.343 162.388 305.453 163.31C305.206 163.565 305.108 164.182 305.233 164.686C305.321 165.043 305.496 165.249 305.68 165.249C305.756 165.249 305.833 165.213 305.905 165.138C306.797 164.214 307.69 163.278 308.583 162.333C308.828 162.073 308.924 161.454 308.797 160.953C308.67 160.449 308.367 160.252 308.121 160.514L308.123 160.512Z" fill="#F05D23"/>
<path d="M217.529 148.757C218.41 148.596 219.29 148.449 220.168 148.317C220.411 148.28 220.598 147.716 220.585 147.057C220.572 146.419 220.377 145.928 220.145 145.928C220.136 145.928 220.128 145.928 220.119 145.928C219.237 146.06 218.353 146.208 217.469 146.368C217.226 146.413 217.042 146.983 217.058 147.642C217.075 148.301 217.283 148.797 217.529 148.755V148.757Z" fill="#F05D23"/>
<path d="M212.255 149.891C213.134 149.675 214.013 149.472 214.89 149.282C215.134 149.229 215.315 148.654 215.295 147.995C215.277 147.37 215.084 146.893 214.855 146.893C214.844 146.893 214.832 146.893 214.82 146.896C213.939 147.086 213.057 147.289 212.175 147.505C211.933 147.565 211.754 148.145 211.775 148.805C211.797 149.461 212.009 149.936 212.255 149.888V149.891Z" fill="#F05D23"/>
<path d="M238.675 147.621C239.557 147.687 240.438 147.769 241.318 147.864C241.557 147.874 241.767 147.376 241.776 146.717C241.786 146.057 241.596 145.501 241.353 145.475C240.47 145.38 239.585 145.298 238.699 145.23H238.686C238.448 145.23 238.252 145.744 238.245 146.392C238.238 147.052 238.43 147.603 238.675 147.621Z" fill="#F05D23"/>
<path d="M170.698 170.676C171.549 170.033 172.399 169.403 173.249 168.786C173.485 168.614 173.625 167.961 173.562 167.322C173.509 166.787 173.33 166.434 173.136 166.434C173.098 166.434 173.06 166.447 173.021 166.476C172.168 167.093 171.314 167.726 170.46 168.372C170.225 168.549 170.088 169.208 170.153 169.846C170.219 170.481 170.463 170.856 170.698 170.676Z" fill="#F05D23"/>
<path d="M206.994 151.354C207.871 151.083 208.748 150.824 209.623 150.579C209.865 150.511 210.042 149.925 210.017 149.266C209.994 148.649 209.802 148.193 209.578 148.193C209.563 148.193 209.548 148.193 209.532 148.198C208.653 148.443 207.773 148.702 206.893 148.976C206.65 149.053 206.477 149.643 206.504 150.3C206.533 150.956 206.754 151.431 206.993 151.352L206.994 151.354Z" fill="#F05D23"/>
<path d="M228.097 147.508C228.98 147.46 229.861 147.426 230.742 147.407C230.986 147.402 231.182 146.862 231.18 146.202C231.178 145.546 230.98 145.016 230.738 145.016H230.734C229.85 145.034 228.965 145.069 228.079 145.116C227.834 145.129 227.641 145.675 227.646 146.337C227.65 146.999 227.847 147.5 228.096 147.51L228.097 147.508Z" fill="#F05D23"/>
<path d="M233.386 147.392C234.269 147.402 235.15 147.426 236.031 147.463C236.271 147.447 236.476 146.946 236.479 146.287C236.483 145.625 236.289 145.082 236.045 145.071C235.161 145.034 234.276 145.011 233.39 145H233.388C233.145 145 232.947 145.533 232.946 146.192C232.946 146.854 233.142 147.389 233.386 147.392Z" fill="#F05D23"/>
<path d="M201.747 153.153C202.622 152.826 203.496 152.512 204.369 152.214C204.61 152.132 204.782 151.534 204.751 150.877C204.723 150.273 204.533 149.83 204.314 149.83C204.296 149.83 204.277 149.833 204.258 149.841C203.382 150.142 202.504 150.455 201.626 150.785C201.385 150.875 201.215 151.478 201.249 152.132C201.283 152.786 201.506 153.248 201.747 153.153Z" fill="#F05D23"/>
<path d="M175.808 166.974C176.664 166.381 177.52 165.801 178.375 165.237C178.612 165.081 178.757 164.433 178.699 163.792C178.649 163.246 178.469 162.88 178.271 162.88C178.237 162.88 178.201 162.89 178.165 162.914C177.308 163.481 176.449 164.061 175.589 164.657C175.353 164.82 175.211 165.471 175.271 166.112C175.331 166.75 175.572 167.138 175.808 166.974Z" fill="#F05D23"/>
<path d="M180.947 163.578C181.807 163.038 182.667 162.51 183.527 161.996C183.765 161.854 183.915 161.216 183.863 160.57C183.817 160.011 183.635 159.631 183.431 159.631C183.4 159.631 183.368 159.642 183.336 159.66C182.473 160.174 181.61 160.704 180.746 161.247C180.509 161.398 180.361 162.041 180.416 162.682C180.472 163.325 180.709 163.726 180.947 163.578Z" fill="#F05D23"/>
<path d="M186.112 160.493C186.977 160.006 187.841 159.528 188.705 159.07C188.944 158.94 189.1 158.313 189.052 157.664C189.011 157.095 188.827 156.699 188.619 156.699C188.591 156.699 188.562 156.707 188.534 156.723C187.667 157.184 186.8 157.662 185.931 158.152C185.693 158.286 185.539 158.922 185.589 159.568C185.639 160.214 185.873 160.628 186.112 160.496V160.493Z" fill="#F05D23"/>
<path d="M196.515 155.275C197.387 154.893 198.257 154.527 199.128 154.173C199.369 154.076 199.536 153.467 199.499 152.813C199.466 152.219 199.278 151.792 199.063 151.792C199.041 151.792 199.019 151.798 198.996 151.806C198.123 152.161 197.249 152.531 196.374 152.913C196.133 153.018 195.97 153.633 196.007 154.284C196.046 154.935 196.273 155.391 196.514 155.275H196.515Z" fill="#F05D23"/>
<path d="M191.303 157.725C192.172 157.29 193.04 156.868 193.907 156.459C194.147 156.346 194.308 155.726 194.266 155.075C194.229 154.492 194.042 154.084 193.831 154.084C193.805 154.084 193.78 154.089 193.755 154.102C192.884 154.511 192.013 154.935 191.142 155.373C190.902 155.494 190.743 156.116 190.787 156.768C190.832 157.416 191.062 157.851 191.302 157.727L191.303 157.725Z" fill="#F05D23"/>
<path d="M296.643 158.972C297.514 158.447 298.385 157.841 299.232 157.171C299.467 156.986 299.601 156.322 299.533 155.689C299.477 155.167 299.3 154.827 299.11 154.827C299.069 154.827 299.027 154.843 298.986 154.874C298.157 155.528 297.305 156.122 296.453 156.636C296.214 156.781 296.064 157.419 296.118 158.065C296.17 158.711 296.407 159.114 296.645 158.972H296.643Z" fill="#F05D23"/>
<path d="M291.37 161.242C292.261 161.005 293.152 160.694 294.02 160.322C294.26 160.219 294.425 159.605 294.387 158.954C294.353 158.363 294.165 157.944 293.95 157.944C293.927 157.944 293.905 157.949 293.881 157.96C293.031 158.323 292.158 158.627 291.284 158.859C291.041 158.925 290.863 159.51 290.888 160.167C290.912 160.823 291.125 161.284 291.37 161.24V161.242Z" fill="#F05D23"/>
<path d="M280.703 160.997C281.599 161.255 282.495 161.456 283.363 161.598C283.606 161.648 283.816 161.137 283.831 160.475C283.845 159.816 283.659 159.249 283.416 159.209C282.561 159.07 281.679 158.872 280.795 158.616C280.78 158.611 280.764 158.608 280.748 158.608C280.525 158.608 280.334 159.064 280.309 159.679C280.284 160.335 280.459 160.926 280.702 160.994L280.703 160.997Z" fill="#F05D23"/>
<path d="M286.032 161.856C286.934 161.885 287.829 161.846 288.704 161.746C288.948 161.717 289.138 161.16 289.127 160.499C289.117 159.855 288.922 159.354 288.686 159.354C288.68 159.354 288.673 159.354 288.667 159.354C287.808 159.452 286.928 159.494 286.043 159.462H286.038C285.796 159.462 285.6 159.987 285.596 160.644C285.593 161.305 285.789 161.846 286.032 161.854V161.856Z" fill="#F05D23"/>
<path d="M306.66 149.069C306.774 148.908 306.887 148.731 307 148.565V145.839C306.75 146.213 306.501 146.593 306.25 146.949C306.034 147.255 305.951 147.98 306.064 148.565C306.177 149.15 306.445 149.377 306.66 149.069Z" fill="#F05D23"/>
<path d="M301.771 154.922C302.608 154.096 303.442 153.187 304.251 152.216C304.474 151.948 304.575 151.244 304.476 150.64C304.403 150.191 304.241 149.928 304.072 149.928C304.013 149.928 303.952 149.962 303.894 150.031C303.102 150.977 302.286 151.868 301.469 152.675C301.24 152.902 301.121 153.588 301.205 154.21C301.288 154.829 301.542 155.151 301.771 154.924V154.922Z" fill="#F05D23"/>
<path d="M254.507 150.368C255.385 150.608 256.262 150.861 257.136 151.128C257.378 151.209 257.597 150.73 257.625 150.073C257.652 149.416 257.478 148.826 257.236 148.752C256.358 148.483 255.477 148.227 254.595 147.99C254.58 147.985 254.565 147.985 254.551 147.985C254.327 147.985 254.135 148.443 254.111 149.06C254.087 149.717 254.264 150.305 254.507 150.371V150.368Z" fill="#F05D23"/>
<path d="M243.959 148.19C244.841 148.314 245.721 148.454 246.6 148.604C246.841 148.644 247.053 148.145 247.069 147.486C247.084 146.827 246.9 146.258 246.656 146.215C245.774 146.062 244.89 145.923 244.005 145.799C243.997 145.799 243.989 145.799 243.982 145.799C243.748 145.799 243.553 146.295 243.541 146.933C243.528 147.592 243.715 148.156 243.958 148.19H243.959Z" fill="#F05D23"/>
<path d="M259.762 151.974C260.638 152.272 261.512 152.583 262.385 152.907C262.627 153.005 262.849 152.541 262.882 151.884C262.915 151.231 262.747 150.627 262.504 150.537C261.629 150.21 260.751 149.899 259.872 149.601C259.853 149.593 259.835 149.59 259.816 149.59C259.597 149.59 259.406 150.033 259.378 150.637C259.348 151.294 259.519 151.89 259.762 151.974Z" fill="#F05D23"/>
<path d="M249.238 149.105C250.118 149.287 250.997 149.483 251.873 149.693C252.115 149.749 252.331 149.264 252.352 148.607C252.374 147.948 252.194 147.368 251.951 147.31C251.071 147.099 250.189 146.904 249.305 146.719C249.293 146.719 249.283 146.717 249.271 146.717C249.042 146.717 248.848 147.194 248.831 147.821C248.812 148.481 248.994 149.055 249.238 149.105Z" fill="#F05D23"/>
<path d="M270.224 156.222C271.093 156.633 271.96 157.06 272.826 157.501C273.066 157.625 273.296 157.195 273.342 156.546C273.387 155.898 273.229 155.273 272.99 155.151C272.12 154.711 271.25 154.281 270.376 153.867C270.351 153.854 270.325 153.849 270.3 153.849C270.089 153.849 269.902 154.258 269.865 154.84C269.823 155.492 269.984 156.111 270.225 156.225L270.224 156.222Z" fill="#F05D23"/>
<path d="M275.426 158.861C276.308 159.317 277.193 159.726 278.055 160.077C278.299 160.174 278.521 159.726 278.557 159.072C278.593 158.418 278.427 157.809 278.186 157.711C277.335 157.366 276.463 156.963 275.592 156.512C275.563 156.499 275.536 156.491 275.509 156.491C275.301 156.491 275.115 156.891 275.076 157.464C275.03 158.112 275.187 158.74 275.427 158.864L275.426 158.861Z" fill="#F05D23"/>
<path d="M265.004 153.925C265.877 154.281 266.748 154.648 267.617 155.03C267.858 155.135 268.084 154.692 268.124 154.041C268.163 153.39 268 152.776 267.759 152.67C266.887 152.288 266.012 151.916 265.135 151.56C265.113 151.552 265.091 151.547 265.069 151.547C264.854 151.547 264.666 151.974 264.633 152.565C264.597 153.218 264.762 153.828 265.004 153.925Z" fill="#F05D23"/>
<path d="M222.81 147.963C223.693 147.858 224.574 147.768 225.454 147.694C225.697 147.673 225.889 147.122 225.881 146.461C225.873 145.815 225.678 145.303 225.44 145.303H225.425C224.542 145.379 223.658 145.472 222.772 145.575C222.529 145.604 222.34 146.163 222.351 146.822C222.362 147.481 222.563 147.979 222.811 147.966L222.81 147.963Z" fill="#F05D23"/>
<path d="M85.5518 283.321C86.2713 281.929 86.9918 280.55 87.7112 279.179C87.9108 278.799 87.9595 278.053 87.8193 277.513C87.7336 277.18 87.5964 277.004 87.4571 277.004C87.3695 277.004 87.2809 277.075 87.204 277.22C86.4816 278.594 85.7602 279.978 85.0387 281.373C84.8401 281.758 84.7944 282.504 84.9356 283.042C85.0777 283.58 85.3532 283.704 85.5518 283.319V283.321Z" fill="#F05D23"/>
<path d="M89.883 275.087C90.6112 273.726 91.3395 272.379 92.0677 271.045C92.2693 270.673 92.3228 269.93 92.1855 269.384C92.0999 269.044 91.9606 268.859 91.8195 268.859C91.7348 268.859 91.6481 268.925 91.5722 269.065C90.841 270.404 90.1108 271.754 89.3806 273.12C89.1801 273.494 89.1295 274.241 89.2677 274.784C89.406 275.327 89.6805 275.467 89.882 275.09L89.883 275.087Z" fill="#F05D23"/>
<path d="M81.2705 291.751C81.9813 290.327 82.693 288.914 83.4047 287.511C83.6023 287.123 83.6461 286.375 83.502 285.839C83.4154 285.518 83.281 285.346 83.1447 285.346C83.0551 285.346 82.9636 285.42 82.8857 285.576C82.1721 286.981 81.4585 288.397 80.7458 289.826C80.5501 290.219 80.5082 290.968 80.6533 291.5C80.7984 292.03 81.0749 292.141 81.2715 291.751H81.2705Z" fill="#F05D23"/>
<path d="M98.699 259.222C99.4438 257.93 100.189 256.651 100.934 255.386C101.141 255.035 101.203 254.297 101.074 253.738C100.99 253.377 100.846 253.176 100.699 253.176C100.619 253.176 100.537 253.234 100.464 253.361C99.7164 254.632 98.9697 255.913 98.222 257.208C98.0165 257.564 97.9562 258.304 98.0876 258.861C98.219 259.417 98.4926 259.581 98.698 259.225L98.699 259.222Z" fill="#F05D23"/>
<path d="M77.0404 300.365C77.7434 298.91 78.4463 297.467 79.1492 296.036C79.3439 295.637 79.3829 294.889 79.2368 294.361C79.1502 294.048 79.0178 293.884 78.8834 293.884C78.7909 293.884 78.6975 293.963 78.6186 294.124C77.9137 295.558 77.2089 297.009 76.504 298.467C76.3103 298.867 76.2732 299.619 76.4212 300.144C76.5692 300.668 76.8467 300.768 77.0404 300.368V300.365Z" fill="#F05D23"/>
<path d="M94.2663 267.05C95.0023 265.726 95.7393 264.411 96.4763 263.111C96.6808 262.75 96.7382 262.009 96.6048 261.455C96.5201 261.104 96.379 260.912 96.2349 260.912C96.1521 260.912 96.0684 260.975 95.9944 261.107C95.2555 262.412 94.5165 263.73 93.7776 265.059C93.5741 265.423 93.5196 266.167 93.6539 266.718C93.7892 267.266 94.0628 267.419 94.2663 267.053V267.05Z" fill="#F05D23"/>
<path d="M60.6338 336.596C61.3016 335.027 61.9705 333.469 62.6403 331.921C62.8253 331.491 62.8477 330.737 62.689 330.234C62.6014 329.957 62.4777 329.814 62.3531 329.814C62.2519 329.814 62.1496 329.909 62.0659 330.102C61.3951 331.652 60.7253 333.216 60.0555 334.79C59.8715 335.222 59.851 335.979 60.0107 336.477C60.1704 336.976 60.4498 337.031 60.6338 336.599V336.596Z" fill="#F05D23"/>
<path d="M56.6591 346.067C57.3191 344.471 57.9792 342.887 58.6393 341.31C58.8224 340.875 58.8399 340.118 58.6792 339.623C58.5916 339.354 58.4699 339.216 58.3473 339.216C58.2441 339.216 58.1399 339.314 58.0552 339.514C57.3931 341.091 56.7311 342.681 56.0701 344.282C55.888 344.722 55.8724 345.479 56.035 345.972C56.1976 346.465 56.477 346.507 56.6591 346.067Z" fill="#F05D23"/>
<path d="M103.181 251.607C103.933 250.352 104.687 249.11 105.44 247.881C105.65 247.541 105.717 246.806 105.59 246.239C105.508 245.867 105.362 245.659 105.212 245.659C105.134 245.659 105.056 245.714 104.984 245.833C104.228 247.067 103.473 248.314 102.717 249.572C102.51 249.917 102.445 250.653 102.572 251.217C102.7 251.781 102.972 251.955 103.18 251.61L103.181 251.607Z" fill="#F05D23"/>
<path d="M52.1171 355.614C52.2826 356.099 52.561 356.131 52.7411 355.685C53.3905 354.067 54.0409 352.461 54.6922 350.863C54.8733 350.42 54.8869 349.663 54.7224 349.175C54.6347 348.914 54.515 348.783 54.3952 348.783C54.2891 348.783 54.183 348.885 54.0983 349.094C53.446 350.694 52.7947 352.305 52.1424 353.927C51.9632 354.375 51.9516 355.132 52.1161 355.617L52.1171 355.614Z" fill="#F05D23"/>
<path d="M72.8613 309.161C73.5555 307.676 74.2497 306.202 74.9448 304.739C75.1376 304.333 75.1726 303.581 75.0227 303.059C74.936 302.756 74.8056 302.598 74.6741 302.598C74.5797 302.598 74.4843 302.68 74.4035 302.848C73.7074 304.314 73.0113 305.791 72.3151 307.281C72.1233 307.689 72.0912 308.444 72.2421 308.96C72.393 309.477 72.6715 309.567 72.8623 309.155L72.8613 309.161Z" fill="#F05D23"/>
<path d="M68.7345 318.136C69.4199 316.623 70.1053 315.12 70.7917 313.628C70.9815 313.214 71.0117 312.462 70.8598 311.945C70.7722 311.65 70.6447 311.497 70.5152 311.497C70.4178 311.497 70.3204 311.582 70.2387 311.761C69.5513 313.256 68.864 314.764 68.1766 316.28C67.9878 316.697 67.9595 317.451 68.1134 317.962C68.2672 318.474 68.5456 318.55 68.7345 318.134V318.136Z" fill="#F05D23"/>
<path d="M64.6587 327.283C65.3353 325.74 66.0129 324.208 66.6905 322.69C66.8784 322.268 66.9047 321.514 66.749 321.005C66.6613 320.72 66.5358 320.572 66.4082 320.572C66.3089 320.572 66.2096 320.662 66.1268 320.847C65.4473 322.371 64.7687 323.905 64.0901 325.453C63.9032 325.88 63.8798 326.634 64.0366 327.14C64.1943 327.644 64.4727 327.71 64.6587 327.285V327.283Z" fill="#F05D23"/>
<path d="M131.088 210.699C131.888 209.684 132.689 208.679 133.489 207.685C133.711 207.411 133.808 206.702 133.707 206.1C133.633 205.663 133.472 205.402 133.305 205.402C133.244 205.402 133.181 205.439 133.122 205.51C132.32 206.504 131.516 207.511 130.714 208.531C130.493 208.811 130.398 209.523 130.502 210.124C130.605 210.72 130.868 210.978 131.089 210.699H131.088Z" fill="#F05D23"/>
<path d="M150.587 188.453C151.414 187.614 152.242 186.789 153.07 185.979C153.299 185.755 153.417 185.07 153.334 184.448C153.269 183.962 153.1 183.659 152.919 183.659C152.869 183.659 152.818 183.683 152.769 183.73C151.938 184.545 151.108 185.37 150.277 186.211C150.049 186.443 149.933 187.132 150.018 187.751C150.104 188.368 150.359 188.685 150.587 188.453Z" fill="#F05D23"/>
<path d="M145.65 193.61C146.472 192.724 147.292 191.854 148.113 190.997C148.341 190.76 148.454 190.066 148.366 189.449C148.299 188.975 148.132 188.682 147.954 188.682C147.902 188.682 147.848 188.708 147.796 188.764C146.972 189.623 146.149 190.499 145.324 191.387C145.097 191.632 144.987 192.326 145.077 192.94C145.167 193.555 145.423 193.853 145.65 193.61Z" fill="#F05D23"/>
<path d="M140.754 199.039C141.569 198.108 142.383 197.193 143.197 196.289C143.423 196.038 143.531 195.34 143.439 194.728C143.368 194.264 143.204 193.984 143.03 193.984C142.974 193.984 142.918 194.013 142.862 194.074C142.045 194.981 141.229 195.901 140.411 196.832C140.186 197.088 140.081 197.789 140.175 198.398C140.27 199.007 140.53 199.295 140.753 199.036L140.754 199.039Z" fill="#F05D23"/>
<path d="M135.899 204.737C136.707 203.764 137.514 202.802 138.321 201.855C138.545 201.591 138.648 200.887 138.551 200.281C138.479 199.83 138.317 199.561 138.146 199.561C138.088 199.561 138.027 199.593 137.971 199.661C137.161 200.613 136.351 201.576 135.541 202.554C135.318 202.823 135.218 203.529 135.317 204.133C135.416 204.737 135.677 205.006 135.9 204.74L135.899 204.737Z" fill="#F05D23"/>
<path d="M107.714 244.208C108.475 242.99 109.236 241.785 109.998 240.593C110.209 240.261 110.281 239.531 110.158 238.959C110.077 238.574 109.929 238.36 109.776 238.36C109.701 238.36 109.625 238.413 109.555 238.521C108.791 239.718 108.027 240.928 107.263 242.149C107.053 242.487 106.984 243.22 107.107 243.786C107.232 244.356 107.503 244.546 107.712 244.208H107.714Z" fill="#F05D23"/>
<path d="M160.572 178.982C161.412 178.238 162.251 177.51 163.09 176.793C163.323 176.595 163.453 175.923 163.379 175.293C163.319 174.781 163.145 174.454 162.957 174.454C162.913 174.454 162.868 174.473 162.825 174.51C161.982 175.227 161.139 175.96 160.296 176.704C160.065 176.909 159.938 177.584 160.014 178.212C160.09 178.839 160.339 179.182 160.571 178.976L160.572 178.982Z" fill="#F05D23"/>
<path d="M155.561 183.575C156.396 182.784 157.229 182.006 158.063 181.244C158.293 181.033 158.418 180.353 158.339 179.728C158.277 179.23 158.104 178.916 157.92 178.916C157.874 178.916 157.826 178.937 157.779 178.979C156.943 179.747 156.107 180.524 155.269 181.318C155.04 181.537 154.918 182.22 154.999 182.842C155.08 183.467 155.332 183.794 155.561 183.575Z" fill="#F05D23"/>
<path d="M112.294 237.031C113.063 235.853 113.833 234.685 114.602 233.53C114.815 233.211 114.892 232.48 114.774 231.903C114.694 231.508 114.543 231.286 114.388 231.286C114.316 231.286 114.242 231.334 114.175 231.436C113.403 232.594 112.631 233.765 111.859 234.948C111.647 235.273 111.572 236.003 111.693 236.578C111.813 237.153 112.082 237.356 112.295 237.029L112.294 237.031Z" fill="#F05D23"/>
<path d="M116.923 230.089C117.7 228.947 118.478 227.819 119.255 226.704C119.47 226.395 119.552 225.67 119.439 225.087C119.36 224.681 119.206 224.449 119.048 224.449C118.978 224.449 118.908 224.494 118.842 224.589C118.062 225.707 117.282 226.838 116.502 227.982C116.288 228.296 116.208 229.024 116.324 229.604C116.44 230.184 116.709 230.4 116.923 230.087V230.089Z" fill="#F05D23"/>
<path d="M165.618 174.681C166.464 173.988 167.31 173.307 168.155 172.643C168.389 172.458 168.524 171.794 168.455 171.161C168.399 170.639 168.223 170.299 168.032 170.299C167.991 170.299 167.949 170.315 167.908 170.346C167.06 171.014 166.212 171.696 165.363 172.393C165.13 172.585 164.998 173.252 165.068 173.885C165.139 174.518 165.386 174.874 165.619 174.684L165.618 174.681Z" fill="#F05D23"/>
<path d="M126.321 216.916C127.113 215.856 127.906 214.809 128.699 213.776C128.919 213.488 129.012 212.774 128.906 212.178C128.83 211.751 128.672 211.5 128.508 211.5C128.443 211.5 128.378 211.537 128.317 211.619C127.521 212.655 126.726 213.704 125.93 214.77C125.711 215.062 125.622 215.78 125.73 216.373C125.838 216.966 126.103 217.209 126.322 216.916H126.321Z" fill="#F05D23"/>
<path d="M121.599 223.378C122.384 222.276 123.169 221.19 123.954 220.114C124.172 219.816 124.259 219.096 124.149 218.508C124.071 218.092 123.916 217.852 123.754 217.852C123.687 217.852 123.619 217.894 123.556 217.981C122.768 219.059 121.98 220.151 121.193 221.253C120.977 221.556 120.892 222.279 121.004 222.864C121.116 223.452 121.383 223.682 121.6 223.376L121.599 223.378Z" fill="#F05D23"/>
<path d="M84.9504 133.849C84.8599 134.177 84.8079 134.518 84.8057 134.873L84.7989 137.137L84.1704 315.862C84.1704 315.982 84.1772 316.106 84.184 316.226C84.2767 317.288 84.7989 318.232 85.5789 318.888C86.0401 319.27 86.5804 319.554 87.1817 319.699C87.4824 319.771 87.8035 319.812 88.1358 319.812L220.273 320.269L330.001 320.646C330.141 320.646 330.274 320.646 330.408 320.632H330.415C331.303 320.547 332.11 320.169 332.725 319.595L332.752 319.568C332.958 319.383 333.139 319.173 333.299 318.947C333.747 318.318 334 317.552 334.007 316.727L334.014 315.631L334.635 136.746L334.642 135.736C334.647 135.051 334.466 134.409 334.156 133.847H84.9504V133.849Z" fill="#FFEDE6"/>
<path d="M334.635 133.849L217.546 38.654C212.342 34.4211 204.728 34.4483 199.553 38.715L84.1818 133.849H334.638H334.635Z" fill="#FFEDE6"/>
<path d="M317.345 303.141C317.345 304.144 316.816 304.958 316.158 304.958H101.935C101.28 304.958 100.751 304.144 100.751 303.141V56.3517C100.751 55.3482 101.28 54.5347 101.935 54.5347H316.158C316.814 54.5347 317.345 55.3482 317.345 56.3517V303.141Z" fill="url(#paint0_linear_1_950)"/>
<path d="M316.158 54.5347H101.935C101.28 54.5347 100.751 55.5019 100.751 56.6952V103.718H317.345V56.6952C317.345 55.5019 316.816 54.5347 316.158 54.5347Z" fill="#F05D23"/>
<path d="M201.063 132.884C201.063 134.383 199.845 135.598 198.346 135.598H118.242C116.746 135.598 115.527 134.383 115.527 132.884V131.069C115.527 129.571 116.746 128.353 118.242 128.353H198.346C199.845 128.353 201.063 129.571 201.063 131.069V132.884Z" fill="#CCCCCC"/>
<path d="M153.802 145.373C153.802 146.873 152.583 148.089 151.089 148.089H118.242C116.746 148.089 115.527 146.873 115.527 145.373V143.56C115.527 142.062 116.746 140.844 118.242 140.844H151.089C152.583 140.844 153.802 142.062 153.802 143.56V145.373Z" fill="#CCCCCC"/>
<path d="M200.294 145.373C200.294 146.873 199.074 148.089 197.577 148.089H162.257C160.756 148.089 159.54 146.873 159.54 145.373V143.56C159.54 142.062 160.754 140.844 162.257 140.844H197.577C199.074 140.844 200.294 142.062 200.294 143.56V145.373Z" fill="#CCCCCC"/>
<path d="M301.432 132.884C301.432 134.383 300.215 135.598 298.717 135.598H218.611C217.114 135.598 215.894 134.383 215.894 132.884V131.069C215.894 129.571 217.114 128.353 218.611 128.353H298.717C300.215 128.353 301.432 129.571 301.432 131.069V132.884Z" fill="#CCCCCC"/>
<path d="M201.063 158.338C201.063 159.836 199.845 161.052 198.346 161.052H118.242C116.746 161.052 115.527 159.836 115.527 158.338V156.523C115.527 155.025 116.746 153.809 118.242 153.809H198.346C199.845 153.809 201.063 155.027 201.063 156.523V158.338Z" fill="#CCCCCC"/>
<path d="M301.432 158.338C301.432 159.836 300.215 161.052 298.717 161.052H218.611C217.114 161.052 215.894 159.836 215.894 158.338V156.523C215.894 155.025 217.114 153.809 218.611 153.809H298.717C300.215 153.809 301.432 155.027 301.432 156.523V158.338Z" fill="#CCCCCC"/>
<path d="M201.063 171.378C201.063 172.876 199.845 174.092 198.346 174.092H118.242C116.746 174.092 115.527 172.876 115.527 171.378V169.563C115.527 168.065 116.746 166.847 118.242 166.847H198.346C199.845 166.847 201.063 168.065 201.063 169.563V171.378Z" fill="#CCCCCC"/>
<path d="M301.432 171.378C301.432 172.876 300.215 174.092 298.717 174.092H218.611C217.114 174.092 215.894 172.876 215.894 171.378V169.563C215.894 168.065 217.114 166.847 218.611 166.847H298.717C300.215 166.847 301.432 168.065 301.432 169.563V171.378Z" fill="#CCCCCC"/>
<path d="M254.171 145.373C254.171 146.873 252.952 148.089 251.453 148.089H218.609C217.112 148.089 215.891 146.873 215.891 145.373V143.56C215.891 142.062 217.112 140.844 218.609 140.844H251.453C252.95 140.844 254.171 142.062 254.171 143.56V145.373Z" fill="#CCCCCC"/>
<path d="M300.661 145.373C300.661 146.873 299.44 148.089 297.946 148.089H262.628C261.129 148.089 259.913 146.873 259.913 145.373V143.56C259.913 142.062 261.129 140.844 262.628 140.844H297.946C299.442 140.844 300.661 142.062 300.661 143.56V145.373Z" fill="#CCCCCC"/>
<path d="M201.063 184.309C201.063 185.81 199.845 187.025 198.346 187.025H118.242C116.746 187.025 115.527 185.81 115.527 184.309V182.494C115.527 180.996 116.746 179.778 118.242 179.778H198.346C199.845 179.778 201.063 180.996 201.063 182.494V184.309Z" fill="#CCCCCC"/>
<path d="M153.802 196.8C153.802 198.3 152.583 199.516 151.089 199.516H118.242C116.746 199.516 115.527 198.3 115.527 196.8V194.987C115.527 193.491 116.746 192.273 118.242 192.273H151.089C152.583 192.273 153.802 193.491 153.802 194.987V196.8Z" fill="#CCCCCC"/>
<path d="M200.294 196.8C200.294 198.3 199.074 199.516 197.577 199.516H162.257C160.756 199.516 159.54 198.3 159.54 196.8V194.987C159.54 193.491 160.754 192.273 162.257 192.273H197.577C199.074 192.273 200.294 193.491 200.294 194.987V196.8Z" fill="#CCCCCC"/>
<path d="M301.432 184.309C301.432 185.81 300.215 187.025 298.717 187.025H218.611C217.114 187.025 215.894 185.81 215.894 184.309V182.494C215.894 180.996 217.114 179.778 218.611 179.778H298.717C300.215 179.778 301.432 180.996 301.432 182.494V184.309Z" fill="#CCCCCC"/>
<path d="M254.171 196.8C254.171 198.3 252.952 199.516 251.453 199.516H218.609C217.112 199.516 215.891 198.3 215.891 196.8V194.987C215.891 193.491 217.112 192.273 218.609 192.273H251.453C252.95 192.273 254.171 193.491 254.171 194.987V196.8Z" fill="#CCCCCC"/>
<path d="M300.661 196.8C300.661 198.3 299.44 199.516 297.946 199.516H262.628C261.129 199.516 259.913 198.3 259.913 196.8V194.987C259.913 193.491 261.129 192.273 262.628 192.273H297.946C299.442 192.273 300.661 193.491 300.661 194.987V196.8Z" fill="#CCCCCC"/>
<path d="M122.716 90.9373V70.9233H128.004L132.162 78.2568C133.349 80.3653 134.538 82.858 135.429 85.1157H135.517C135.221 82.4739 135.13 79.771 135.13 76.772V70.9233H139.288V90.9373H134.536L130.258 83.2174C129.069 81.0795 127.762 78.4964 126.784 76.1506L126.695 76.1799C126.815 78.8218 126.874 81.6422 126.874 84.9101V90.9373H122.716Z" fill="white"/>
<path d="M155.118 82.4739H147.75V87.2242H155.979V90.9373H143.206V70.9233H155.563V74.6364H147.75V78.7924H155.118V82.4739Z" fill="white"/>
<path d="M162.51 90.9373L157.758 70.9233H162.601L164.115 79.1789C164.561 81.5541 164.977 84.1394 165.305 86.1576H165.363C165.689 83.9903 166.166 81.5834 166.67 79.1201L168.363 70.9256H173.177L174.779 79.3574C175.225 81.7032 175.553 83.8411 175.849 86.0672H175.908C176.204 83.8411 176.649 81.4953 177.065 79.1179L178.7 70.9233H183.303L178.134 90.9373H173.233L171.54 82.327C171.153 80.3088 170.828 78.4376 170.59 76.1506H170.531C170.174 78.406 169.849 80.3066 169.374 82.327L167.473 90.9373H162.513H162.51Z" fill="white"/>
<path d="M185.557 86.2753C186.775 86.899 188.645 87.5228 190.575 87.5228C192.655 87.5228 193.754 86.6618 193.754 85.3555C193.754 84.0493 192.805 83.3961 190.397 82.5351C187.069 81.378 184.901 79.5362 184.901 76.6254C184.901 73.2106 187.752 70.5981 192.474 70.5981C194.731 70.5981 196.395 71.0727 197.584 71.6083L196.573 75.2604C195.771 74.8739 194.346 74.3112 192.384 74.3112C190.422 74.3112 189.472 75.2016 189.472 76.2412C189.472 77.5181 190.6 78.083 193.187 79.0616C196.72 80.3678 198.384 82.2097 198.384 85.0301C198.384 88.3861 195.8 91.2359 190.304 91.2359C188.016 91.2359 185.76 90.6415 184.63 90.0178L185.55 86.2753H185.557Z" fill="white"/>
<path d="M201.445 70.9233H205.989V87.1361H213.949V90.9373H201.443V70.9233H201.445Z" fill="white"/>
<path d="M228.531 82.4739H221.164V87.2242H229.393V90.9373H216.619V70.9233H228.977V74.6364H221.164V78.7924H228.531V82.4739Z" fill="white"/>
<path d="M236.489 74.7245H231.113V70.9233H246.5V74.7245H241.033V90.9373H236.489V74.7245Z" fill="white"/>
<path d="M253.415 74.7245H248.039V70.9233H263.426V74.7245H257.96V90.9373H253.415V74.7245Z" fill="white"/>
<path d="M277.741 82.4739H270.373V87.2242H278.603V90.9373H265.829V70.9233H278.187V74.6364H270.373V78.7924H277.741V82.4739Z" fill="white"/>
<path d="M281.688 71.1902C283.144 70.9529 285.312 70.7744 287.718 70.7744C290.689 70.7744 292.768 71.2196 294.193 72.3473C295.38 73.2965 296.035 74.6931 296.035 76.535C296.035 79.0887 294.222 80.8402 292.499 81.4639V81.5543C293.897 82.1193 294.668 83.4549 295.172 85.2967C295.796 87.5544 296.42 90.1669 296.806 90.9375H292.172C291.846 90.3726 291.369 88.7409 290.774 86.2753C290.239 83.7803 289.377 83.0978 287.537 83.0685H286.169V90.9375H281.684V71.1902H281.688ZM286.174 79.8006H287.955C290.214 79.8006 291.55 78.6729 291.55 76.9214C291.55 75.0796 290.302 74.1598 288.222 74.1304C287.123 74.1304 286.499 74.2185 286.172 74.2796V79.8028L286.174 79.8006Z" fill="white"/>
<path d="M334.635 134.778L334.014 315.58L334.007 316.687C334 317.521 333.747 318.296 333.299 318.929L225.194 225.754L334.568 134.708C334.595 134.728 334.615 134.749 334.635 134.776V134.778Z" fill="#F05D23"/>
<path d="M193.618 225.756L85.5789 318.87C84.7966 318.21 84.2767 317.254 84.184 316.18C84.1772 316.061 84.1704 315.934 84.1704 315.814L84.7989 135.173L193.618 225.758V225.756Z" fill="#F05D23"/>
<path d="M197.769 232.046C197.346 232.046 196.921 231.903 196.573 231.609L91.3461 142.959C90.5616 142.299 90.4621 141.128 91.1223 140.344C91.7847 139.56 92.9535 139.461 93.738 140.121L198.965 228.771C199.749 229.431 199.849 230.601 199.189 231.386C198.823 231.822 198.296 232.046 197.769 232.046Z" fill="#CF4D1A"/>
<path d="M220.777 232.046C220.248 232.046 219.723 231.822 219.357 231.386C218.697 230.601 218.796 229.431 219.581 228.771L324.808 140.12C325.59 139.458 326.763 139.56 327.424 140.344C328.084 141.128 327.984 142.299 327.2 142.959L221.973 231.609C221.625 231.903 221.2 232.046 220.777 232.046Z" fill="#CF4D1A"/>
<path d="M334.014 315.577L334.007 316.685C334 317.824 333.525 318.843 332.75 319.562L332.725 319.587C332.106 320.167 331.303 320.545 330.412 320.631H330.406L220.27 320.267L88.1336 319.808C87.8058 319.808 87.4847 319.765 87.1818 319.691C85.554 319.281 84.3287 317.878 84.1818 316.179C111.591 293.263 174.314 241.015 198.784 220.635C204.531 215.842 213.126 215.831 218.898 220.592L334.014 315.58V315.577Z" fill="#BF400E"/>
<path d="M89.2571 313.789C88.7258 313.789 88.1991 313.563 87.8328 313.125C87.175 312.339 87.2812 311.168 88.068 310.51C118.76 284.871 179.663 234.143 197.597 219.207C203.988 213.878 213.653 213.855 220.08 219.157L330.381 310.171C331.172 310.824 331.283 311.993 330.632 312.784C329.978 313.575 328.809 313.688 328.018 313.035L217.718 222.02C212.645 217.837 205.017 217.851 199.976 222.057C182.041 236.992 121.141 287.721 90.4485 313.358C90.1026 313.647 89.6799 313.789 89.2594 313.789H89.2571Z" fill="#AF3200"/>
<path d="M35.3401 404.177L27.1771 367.834C27.0778 367.396 27.3537 366.962 27.7915 366.863L75.8459 356.077C76.2837 355.978 76.7178 356.254 76.8172 356.691L84.9801 393.035C85.0794 393.472 84.8035 393.906 84.3657 394.005L36.3113 404.791C35.8735 404.89 35.4395 404.614 35.3401 404.177Z" fill="#BF400E"/>
<path d="M83.7514 393.171C83.6337 393.285 83.4461 393.31 83.2989 393.222L57.1767 377.63C56.9964 377.524 56.9413 377.292 57.0443 377.115C57.1547 376.935 57.3827 376.88 57.5593 376.987L83.6815 392.579C83.8618 392.685 83.9169 392.917 83.8139 393.093C83.7955 393.123 83.7735 393.149 83.7514 393.171Z" fill="#AF3200"/>
<path d="M36.664 403.739C36.5389 403.857 36.3439 403.879 36.1931 403.779C36.0202 403.665 35.9723 403.43 36.0901 403.257L53.0377 377.998C53.1518 377.821 53.3872 377.777 53.5601 377.895C53.733 378.009 53.7771 378.244 53.6631 378.417L36.7155 403.677C36.7008 403.699 36.6823 403.721 36.664 403.739Z" fill="#AF3200"/>
<path d="M27.4349 366.947L76.1994 356L56.4597 382.149L27.4349 366.947Z" fill="#F05D23"/>
<path d="M56.5698 382.627L28.3507 368.054C28.1668 367.959 28.0932 367.731 28.1888 367.547C28.2845 367.363 28.5126 367.289 28.6965 367.385L56.3527 381.668L75.1691 356.952C75.2979 356.787 75.5334 356.754 75.6952 356.882C75.8608 357.007 75.8939 357.243 75.7651 357.408L56.5661 382.627H56.5698Z" fill="#AF3200"/>
<path d="M23.3139 379.145C23.2624 379.193 23.1962 379.23 23.1226 379.244L3.7618 382.83C3.5558 382.866 3.36085 382.734 3.32406 382.528C3.28727 382.326 3.41964 382.127 3.62565 382.091L22.9865 378.505C23.1925 378.468 23.3875 378.601 23.4243 378.807C23.45 378.935 23.4022 379.064 23.3139 379.149V379.145Z" fill="#F05D23"/>
<path d="M19.996 387.169C19.9445 387.217 19.8782 387.254 19.8047 387.268L0.443869 390.854C0.237864 390.89 0.0429157 390.758 0.00612896 390.552C-0.0306577 390.35 0.10171 390.151 0.307715 390.114L19.6686 386.529C19.8746 386.492 20.0696 386.625 20.1063 386.831C20.1321 386.959 20.0843 387.084 19.996 387.173V387.169Z" fill="#F05D23"/>
<path d="M25.97 393.472C25.9185 393.52 25.8522 393.557 25.7787 393.571L6.41787 397.157C6.21186 397.194 6.01691 397.061 5.98013 396.855C5.94334 396.653 6.07571 396.454 6.28171 396.418L25.6426 392.832C25.8486 392.796 26.0436 392.928 26.0803 393.134C26.1061 393.263 26.0583 393.391 25.97 393.476V393.472Z" fill="#F05D23"/>
</g>
<defs>
<linearGradient id="paint0_linear_1_950" x1="209.048" y1="66.605" x2="209.048" y2="307.507" gradientUnits="userSpaceOnUse">
<stop stop-color="#E0E0E0"/>
<stop offset="0.28" stop-color="white"/>
<stop offset="0.73" stop-color="#FCFCFC"/>
<stop offset="1" stop-color="#E6E6E6"/>
</linearGradient>
<clipPath id="clip0_1_950">
<rect width="452" height="405" fill="white"/>
</clipPath>
</defs>
</svg>
