<svg width="205" height="205" viewBox="0 0 205 205" fill="none" xmlns="http://www.w3.org/2000/svg">
<rect width="205" height="205" rx="102.5" fill="#D9D9D9"/>
<path d="M162.269 102.312C162.269 135.47 135.39 162.35 102.232 162.35C69.0737 162.35 42.1938 135.47 42.1938 102.312C42.1938 69.1544 69.0737 42.2746 102.232 42.2746C135.39 42.2746 162.269 69.1544 162.269 102.312Z" fill="#17161C"/>
<path d="M189.328 110.157L181.137 107.777L181.343 105.457L190.753 103.639L190.634 104.976L181.924 106.658L190.269 109.078L190.065 111.372L181.503 112.275L189.704 115.435L189.585 116.772L180.644 113.322L180.847 111.041L189.328 110.157Z" fill="#17161C"/>
<path d="M184.046 119.462L179.77 118.39L180.084 117.139L189.018 119.379L188.705 120.63L185.169 119.743L183.499 126.406L187.034 127.293L186.721 128.544L177.786 126.303L178.1 125.053L182.375 126.125L184.046 119.462Z" fill="#17161C"/>
<path d="M179.104 130.825L177.05 128.493L177.599 127.168L184.372 134.887L183.536 136.905L173.288 137.575L173.842 136.237L176.943 136.04L179.104 130.825ZM179.952 131.803L178.235 135.949L183.297 135.624L179.952 131.803Z" fill="#17161C"/>
<path d="M177.114 146.993L170.181 142.897L170.836 141.787L177.77 145.883L179.852 142.359L180.849 142.948L176.023 151.117L175.026 150.528L177.114 146.993Z" fill="#17161C"/>
<path d="M167.162 153.31L164.589 151.136L165.422 150.151L172.456 156.097L168.515 160.76C168.203 161.129 167.87 161.421 167.514 161.638C167.166 161.86 166.806 161.993 166.436 162.036C166.068 162.092 165.691 162.055 165.307 161.925C164.917 161.803 164.531 161.58 164.149 161.257C163.792 160.932 163.527 160.593 163.354 160.24C163.181 159.888 163.098 159.53 163.106 159.169C163.107 158.814 163.189 158.452 163.351 158.084C163.513 157.715 163.747 157.35 164.053 156.988L167.162 153.31ZM168.046 154.058L164.971 157.696C164.603 158.131 164.422 158.576 164.429 159.03C164.436 159.484 164.657 159.895 165.093 160.263C165.521 160.625 165.964 160.775 166.419 160.712C166.881 160.654 167.296 160.408 167.664 159.973L170.739 156.335L168.046 154.058Z" fill="#17161C"/>
<path d="M152.951 164.724L152.172 163.867L158.674 157.952L164.873 164.766L158.692 170.389L157.912 169.532L163.139 164.777L161.466 162.937L157.222 166.798L156.443 165.942L160.687 162.081L158.499 159.677L152.951 164.724Z" fill="#17161C"/>
<path d="M154.15 168.374C154.599 169.077 154.885 169.753 155.01 170.401C155.127 171.054 155.102 171.671 154.936 172.252C154.768 172.846 154.472 173.399 154.047 173.912C153.62 174.438 153.081 174.924 152.429 175.369C151.777 175.815 151.13 176.135 150.487 176.33C149.842 176.537 149.217 176.609 148.61 176.545C147.996 176.487 147.41 176.282 146.851 175.931C146.29 175.592 145.768 175.093 145.286 174.434L145.152 174.239C144.714 173.55 144.436 172.879 144.319 172.226C144.199 171.585 144.226 170.972 144.399 170.386C144.565 169.805 144.864 169.255 145.296 168.737C145.716 168.216 146.252 167.733 146.904 167.287C147.555 166.842 148.204 166.515 148.849 166.308C149.481 166.099 150.102 166.02 150.711 166.071C151.318 166.135 151.901 166.336 152.463 166.675C153.017 167.019 153.535 167.52 154.017 168.179L154.15 168.374ZM151.775 174.413C152.275 174.072 152.687 173.695 153.01 173.282C153.327 172.875 153.541 172.441 153.652 171.983C153.761 171.536 153.762 171.063 153.654 170.563C153.544 170.075 153.31 169.57 152.954 169.049C152.612 168.549 152.234 168.159 151.82 167.88C151.403 167.612 150.964 167.444 150.504 167.377C150.041 167.321 149.559 167.363 149.06 167.503C148.558 167.655 148.057 167.901 147.557 168.243C147.057 168.585 146.649 168.959 146.333 169.367C146.009 169.779 145.793 170.209 145.684 170.656C145.572 171.114 145.569 171.584 145.675 172.065C145.778 172.557 146.002 173.057 146.349 173.564C146.691 174.064 147.072 174.451 147.494 174.726C147.908 175.006 148.35 175.177 148.818 175.24C149.283 175.315 149.769 175.28 150.276 175.135C150.776 174.996 151.276 174.755 151.775 174.413Z" fill="#17161C"/>
<path d="M141.495 174.937L140 171.918L141.156 171.346L145.242 179.601L139.77 182.31C139.338 182.524 138.916 182.66 138.504 182.717C138.095 182.782 137.713 182.761 137.356 182.654C136.996 182.558 136.665 182.374 136.364 182.103C136.055 181.835 135.79 181.477 135.568 181.028C135.37 180.588 135.261 180.172 135.243 179.779C135.225 179.387 135.291 179.026 135.442 178.697C135.584 178.372 135.803 178.073 136.098 177.8C136.394 177.526 136.754 177.284 137.178 177.074L141.495 174.937ZM142.008 175.975L137.739 178.089C137.228 178.342 136.886 178.678 136.711 179.097C136.537 179.516 136.576 179.981 136.829 180.492C137.078 180.995 137.424 181.308 137.867 181.432C138.314 181.563 138.793 181.502 139.304 181.249L143.573 179.136L142.008 175.975Z" fill="#17161C"/>
<path d="M124.872 179.429L124.494 178.335L131.882 175.782L134.89 184.489L133.671 184.91L131.041 177.298L124.872 179.429Z" fill="#17161C"/>
<path d="M114.557 181.733L114.318 180.6L122.92 178.788L124.818 187.802L116.641 189.524L116.403 188.391L123.318 186.934L122.805 184.501L117.191 185.683L116.952 184.55L122.566 183.368L121.897 180.187L114.557 181.733Z" fill="#17161C"/>
<path d="M100.715 184.018C100.699 183.606 100.767 183.222 100.92 182.865C101.065 182.517 101.321 182.208 101.688 181.94C102.055 181.68 102.548 181.468 103.165 181.303C103.773 181.139 104.537 181.04 105.458 181.004C106.378 180.968 107.136 181.045 107.731 181.232C108.318 181.42 108.789 181.67 109.143 181.981C109.489 182.301 109.744 182.656 109.908 183.044C110.064 183.442 110.167 183.833 110.217 184.218L108.823 184.272C108.743 183.564 108.424 183.023 107.865 182.649C107.298 182.285 106.497 182.123 105.463 182.163C104.393 182.204 103.557 182.359 102.952 182.628C102.34 182.907 102.04 183.322 102.052 183.875C102.065 184.427 102.352 184.811 102.913 185.027C103.475 185.242 104.34 185.362 105.508 185.387C106.281 185.384 106.953 185.41 107.526 185.467C108.09 185.525 108.56 185.638 108.935 185.808C109.311 185.978 109.592 186.217 109.779 186.526C109.967 186.835 110.071 187.243 110.09 187.752C110.105 188.129 110.031 188.492 109.869 188.84C109.707 189.189 109.442 189.498 109.075 189.766C108.699 190.044 108.216 190.269 107.626 190.441C107.036 190.622 106.32 190.729 105.479 190.761C104.576 190.796 103.84 190.724 103.271 190.544C102.694 190.364 102.237 190.123 101.9 189.82C101.555 189.517 101.309 189.171 101.162 188.781C101.007 188.392 100.904 188.006 100.854 187.621L102.248 187.567C102.299 187.978 102.413 188.316 102.59 188.581C102.767 188.856 102.999 189.07 103.286 189.226C103.564 189.382 103.889 189.488 104.26 189.544C104.631 189.6 105.035 189.62 105.474 189.603C105.973 189.583 106.428 189.535 106.838 189.458C107.238 189.381 107.585 189.271 107.878 189.128C108.163 188.994 108.384 188.823 108.543 188.615C108.694 188.416 108.763 188.176 108.753 187.896C108.742 187.624 108.672 187.398 108.542 187.219C108.404 187.049 108.197 186.912 107.92 186.809C107.645 186.714 107.295 186.644 106.872 186.599C106.44 186.563 105.935 186.538 105.355 186.526C104.547 186.513 103.856 186.465 103.282 186.382C102.708 186.307 102.233 186.177 101.857 185.989C101.482 185.802 101.204 185.549 101.025 185.231C100.837 184.914 100.734 184.509 100.715 184.018Z" fill="#17161C"/>
<path d="M96.8882 184.008L98.5392 181.375L99.9658 181.524L94.4934 190.214L92.3209 189.987L88.7627 180.354L90.2024 180.504L91.2736 183.421L96.8882 184.008ZM96.1921 185.099L91.7292 184.633L93.481 189.394L96.1921 185.099Z" fill="#17161C"/>
<path d="M78.8191 179.058L79.1049 177.936L86.8834 179.918L86.5976 181.04L83.3459 180.212L82.9593 181.729L85.6551 189.11L84.1376 188.724L81.9876 182.772L77.2262 186.963L75.7215 186.58L81.7226 181.36L82.0962 179.893L78.8191 179.058Z" fill="#17161C"/>
<path d="M70.7897 177.832L73.2111 175.884L74.5104 176.492L66.4962 182.913L64.5174 181.988L64.3068 171.721L65.618 172.334L65.676 175.44L70.7897 177.832ZM69.7747 178.635L65.71 176.735L65.8078 181.807L69.7747 178.635Z" fill="#17161C"/>
<path d="M53.5957 167.955C54.1207 167.156 54.7519 166.747 55.489 166.727C56.2139 166.71 57.0603 167.02 58.0281 167.656L63.1418 171.016L58.0836 178.714L53.2777 175.556C52.8452 175.272 52.4759 174.987 52.1698 174.702C51.8516 174.42 51.6161 174.123 51.4632 173.813C51.3054 173.51 51.24 173.194 51.267 172.865C51.2819 172.539 51.4122 172.189 51.6579 171.815C51.918 171.419 52.2167 171.148 52.5539 171.002C52.8863 170.864 53.2351 170.804 53.6002 170.824C53.2688 170.386 53.0943 169.94 53.0767 169.488C53.0469 169.038 53.2199 168.527 53.5957 167.955ZM59.0219 174.937L55.3928 172.553C55.0775 172.346 54.7966 172.182 54.5501 172.062C54.3035 171.942 54.0841 171.877 53.8918 171.866C53.6922 171.85 53.5136 171.89 53.3561 171.986C53.1865 172.085 53.0294 172.244 52.8848 172.464C52.7403 172.684 52.665 172.886 52.659 173.071C52.6407 173.259 52.6869 173.436 52.7975 173.603C52.896 173.773 53.0516 173.943 53.2645 174.115C53.4773 174.286 53.734 174.47 54.0346 174.668L57.6417 177.038L59.0219 174.937ZM61.4282 171.275L57.3922 168.623C57.0183 168.378 56.6947 168.207 56.4216 168.112C56.1436 168.023 55.9038 167.997 55.7021 168.032C55.4882 168.07 55.3039 168.159 55.1491 168.299C54.987 168.434 54.8385 168.604 54.7036 168.809C54.5639 169.022 54.463 169.223 54.401 169.413C54.339 169.604 54.3355 169.801 54.3904 170.005C54.4453 170.209 54.5744 170.42 54.7778 170.637C54.9739 170.85 55.2662 171.084 55.6548 171.339L59.6578 173.97L61.4282 171.275Z" fill="#17161C"/>
<path d="M51.2303 168.738C50.6565 169.343 50.0702 169.784 49.4712 170.062C48.8656 170.333 48.2608 170.458 47.6569 170.438C47.0406 170.418 46.432 170.263 45.8311 169.975C45.2179 169.688 44.6164 169.282 44.0266 168.757C43.4368 168.232 42.9698 167.681 42.6255 167.105C42.2689 166.529 42.0482 165.939 41.9633 165.335C41.8719 164.725 41.9291 164.107 42.1349 163.48C42.3283 162.853 42.6864 162.227 43.2092 161.6L43.3666 161.423C43.9287 160.831 44.5125 160.399 45.1181 160.128C45.7113 159.857 46.3131 159.735 46.9236 159.762C47.5275 159.782 48.1332 159.94 48.7406 160.234C49.3473 160.515 49.9455 160.919 50.5353 161.443C51.1251 161.968 51.5983 162.519 51.955 163.094C52.3109 163.658 52.5374 164.241 52.6347 164.844C52.7196 165.448 52.6653 166.064 52.4718 166.69C52.2718 167.311 51.9105 167.934 51.3877 168.561L51.2303 168.738ZM44.7964 167.892C45.2486 168.294 45.7139 168.603 46.1925 168.817C46.6644 169.026 47.1364 169.129 47.6085 169.126C48.0682 169.124 48.5276 169.011 48.9867 168.785C49.4335 168.56 49.8668 168.212 50.2867 167.74C50.6891 167.288 50.9761 166.827 51.1476 166.357C51.3067 165.888 51.3634 165.422 51.3178 164.958C51.2598 164.496 51.1027 164.039 50.8466 163.588C50.578 163.137 50.2177 162.711 49.7655 162.309C49.3133 161.906 48.8512 161.601 48.3793 161.392C47.9008 161.177 47.4317 161.071 46.972 161.073C46.4999 161.076 46.0434 161.186 45.6025 161.404C45.1492 161.623 44.7184 161.962 44.3102 162.421C43.9078 162.873 43.6241 163.337 43.4592 163.813C43.2877 164.283 43.228 164.752 43.2802 165.221C43.32 165.691 43.4712 166.155 43.7339 166.612C43.9901 167.063 44.3443 167.489 44.7964 167.892Z" fill="#17161C"/>
<path d="M36.6528 152.546C37.7355 151.693 38.7624 151.343 39.7334 151.496C40.6978 151.654 41.652 152.287 42.5962 153.396C43.5404 154.505 44.0133 155.554 44.0149 156.543C44.0041 157.532 43.4953 158.484 42.4885 159.399L38.3009 162.965L37.4647 161.983L41.1916 158.809C41.5723 158.485 41.9002 158.16 42.1752 157.833C42.4503 157.507 42.6337 157.161 42.7252 156.795C42.8044 156.428 42.7738 156.033 42.6334 155.611C42.4873 155.183 42.1838 154.698 41.7231 154.157C41.2624 153.616 40.8354 153.236 40.4422 153.018C40.0366 152.799 39.6492 152.702 39.2799 152.729C38.9049 152.749 38.5377 152.865 38.1783 153.079C37.8122 153.299 37.4355 153.574 37.0481 153.903L33.3013 157.094L32.4651 156.113L36.6528 152.546Z" fill="#17161C"/>
<path d="M29.2975 149.387L36.0601 145.014L36.7603 146.097L29.9977 150.47L32.2199 153.906L31.2474 154.535L26.0957 146.568L27.0681 145.939L29.2975 149.387Z" fill="#17161C"/>
<path d="M24.7854 130.836C26.0726 130.343 27.1572 130.314 28.0391 130.748C28.9129 131.186 29.636 132.074 30.2083 133.413C30.7806 134.752 30.9205 135.894 30.6282 136.84C30.3243 137.78 29.5557 138.538 28.3226 139.113L23.2647 141.275L22.7579 140.089L27.2592 138.165C27.719 137.968 28.1288 137.755 28.4884 137.525C28.848 137.295 29.1259 137.019 29.322 136.697C29.5067 136.37 29.5946 135.984 29.5858 135.539C29.5736 135.087 29.4279 134.533 29.1487 133.88C28.8694 133.227 28.5744 132.737 28.2638 132.412C27.9416 132.082 27.6002 131.875 27.2398 131.791C26.8759 131.698 26.4905 131.701 26.0838 131.798C25.669 131.899 25.2277 132.05 24.7598 132.25L20.2343 134.184L19.7275 132.998L24.7854 130.836Z" fill="#17161C"/>
<path d="M22.8766 120.168C23.2733 120.055 23.6632 120.032 24.0463 120.096C24.4185 120.155 24.7784 120.331 25.126 120.625C25.4651 120.921 25.7871 121.349 26.0919 121.91C26.3943 122.463 26.671 123.182 26.922 124.069C27.173 124.955 27.2773 125.71 27.2349 126.332C27.1901 126.947 27.0582 127.463 26.8392 127.881C26.6093 128.292 26.3247 128.623 25.9855 128.875C25.6355 129.12 25.2796 129.312 24.9178 129.451L24.5377 128.108C25.207 127.864 25.6575 127.427 25.8891 126.796C26.1098 126.159 26.0792 125.342 25.7971 124.346C25.5054 123.317 25.1577 122.54 24.754 122.016C24.3395 121.486 23.8652 121.292 23.331 121.434C22.7969 121.576 22.4912 121.946 22.4139 122.542C22.3366 123.138 22.4232 124.007 22.6736 125.149C22.8587 125.899 22.9909 126.559 23.0704 127.129C23.1474 127.691 23.1475 128.174 23.0707 128.579C22.9938 128.983 22.8274 129.313 22.5713 129.568C22.3153 129.823 21.9425 130.02 21.4529 130.158C21.09 130.261 20.72 130.275 20.343 130.199C19.966 130.124 19.6037 129.939 19.2562 129.645C18.8977 129.346 18.5655 128.929 18.2595 128.396C17.945 127.865 17.673 127.194 17.4434 126.384C17.1972 125.515 17.0946 124.782 17.1358 124.187C17.1745 123.584 17.3016 123.083 17.517 122.684C17.73 122.277 18.0085 121.957 18.3525 121.723C18.694 121.48 19.0457 121.289 19.4076 121.15L19.7877 122.492C19.4005 122.639 19.0988 122.829 18.8826 123.063C18.6579 123.3 18.5037 123.576 18.4198 123.892C18.3335 124.199 18.3068 124.539 18.3397 124.913C18.3726 125.287 18.4488 125.685 18.5684 126.107C18.7046 126.588 18.8585 127.018 19.0299 127.398C19.199 127.77 19.3875 128.081 19.5954 128.332C19.7924 128.577 20.0107 128.752 20.2503 128.858C20.479 128.957 20.7284 128.969 20.9985 128.892C21.2602 128.818 21.4629 128.697 21.6067 128.528C21.7396 128.354 21.8239 128.12 21.8595 127.828C21.8867 127.537 21.8725 127.181 21.8168 126.759C21.7503 126.331 21.655 125.834 21.531 125.267C21.3533 124.479 21.2373 123.796 21.1832 123.219C21.1207 122.644 21.1363 122.152 21.23 121.742C21.3237 121.333 21.504 121.003 21.7709 120.755C22.0354 120.497 22.404 120.302 22.8766 120.168Z" fill="#17161C"/>
<path d="M19.1539 110.904L20.1328 110.779L20.782 115.857L19.803 115.982L19.1539 110.904Z" fill="#17161C"/>
<path d="M15.3442 98.9662L23.6359 100.965L23.5371 103.292L14.2218 105.543L14.2788 104.202L22.902 102.119L14.4536 100.087L14.5513 97.7867L23.0621 96.4887L14.7244 93.7111L14.7814 92.3701L23.8721 95.4036L23.775 97.6912L15.3442 98.9662Z" fill="#17161C"/>
<path d="M20.2354 89.0896L24.5525 89.9816L24.2915 91.2445L15.2708 89.3806L15.5318 88.1177L19.1014 88.8553L20.4913 82.1284L16.9217 81.3908L17.1826 80.1279L26.2033 81.9918L25.9424 83.2547L21.6253 82.3627L20.2354 89.0896Z" fill="#17161C"/>
<path d="M24.5813 77.84L26.7378 80.0771L26.249 81.4256L19.1359 74.0188L19.8802 71.9652L30.0871 70.8356L29.5939 72.1965L26.5048 72.5326L24.5813 77.84ZM23.6899 76.901L25.2189 72.6824L20.1761 73.2341L23.6899 76.901Z" fill="#17161C"/>
<path d="M25.8341 61.5626L32.9423 65.3479L32.3362 66.4861L25.2279 62.7009L23.3044 66.3131L22.2823 65.7688L26.7417 57.3945L27.7638 57.9388L25.8341 61.5626Z" fill="#17161C"/>
<path d="M35.3776 54.9167L38.0428 56.977L37.2541 57.9973L29.9664 52.3636L33.7007 47.533C33.9958 47.1513 34.3162 46.8445 34.6617 46.6126C35.0003 46.3754 35.3534 46.227 35.721 46.1675C36.0871 46.0956 36.4649 46.116 36.8546 46.2287C37.2496 46.3345 37.6449 46.5403 38.0405 46.8461C38.4115 47.1551 38.691 47.4821 38.879 47.827C39.067 48.1719 39.1654 48.5251 39.1741 48.8867C39.1882 49.2414 39.1224 49.6063 38.9765 49.9814C38.8307 50.3566 38.6129 50.7315 38.3232 51.1063L35.3776 54.9167ZM34.4614 54.2085L37.3748 50.4397C37.7236 49.9886 37.8846 49.5365 37.8578 49.0834C37.8311 48.6303 37.5922 48.2293 37.141 47.8806C36.6968 47.5372 36.2487 47.407 35.7965 47.4899C35.3374 47.5674 34.9334 47.8317 34.5847 48.2829L31.6713 52.0516L34.4614 54.2085Z" fill="#17161C"/>
<path d="M49.145 42.7592L49.9608 43.581L43.7227 49.774L37.2331 43.237L43.163 37.35L43.9789 38.1718L38.9641 43.1503L40.7163 44.9152L44.7879 40.8731L45.6037 41.6949L41.5321 45.737L43.822 48.0437L49.145 42.7592Z" fill="#17161C"/>
<path d="M47.6412 39.2374C47.1622 38.5549 46.8464 37.8926 46.6938 37.2504C46.5481 36.603 46.5455 35.9854 46.6859 35.3976C46.828 34.7976 47.0999 34.2318 47.5017 33.7001C47.9053 33.1562 48.4229 32.6474 49.0545 32.1737C49.6861 31.7 50.3186 31.3517 50.952 31.1289C51.5872 30.8938 52.2091 30.7947 52.818 30.8315C53.4338 30.8631 54.0286 31.0421 54.6023 31.3684C55.1778 31.6825 55.7208 32.158 56.2314 32.7949L56.3735 32.9843C56.842 33.6528 57.149 34.3108 57.2946 34.9582C57.442 35.5933 57.442 36.2074 57.2946 36.8004C57.1542 37.3882 56.8797 37.9505 56.4708 38.4874C56.0743 39.0261 55.5602 39.5322 54.9286 40.006C54.297 40.4797 53.6636 40.8341 53.0285 41.0692C52.4056 41.306 51.7889 41.4122 51.1783 41.3876C50.5695 41.3508 49.9773 41.1753 49.4018 40.8613C48.8334 40.5419 48.2939 40.0638 47.7833 39.4269L47.6412 39.2374ZM49.7493 33.1001C49.265 33.4633 48.8703 33.8581 48.565 34.2844C48.2667 34.7055 48.0719 35.1476 47.9807 35.6108C47.8912 36.0617 47.9114 36.5346 48.0412 37.0294C48.1728 37.5119 48.4281 38.0058 48.8071 38.5111C49.1703 38.9953 49.565 39.3682 49.9914 39.6296C50.4195 39.8787 50.8651 40.027 51.3283 40.0744C51.7933 40.1095 52.2723 40.0463 52.7653 39.8849C53.2601 39.7112 53.7496 39.4427 54.2338 39.0796C54.7181 38.7164 55.1093 38.3242 55.4076 37.9032C55.7129 37.4768 55.9103 37.0382 55.9998 36.5873C56.091 36.1241 56.0735 35.6547 55.9471 35.1793C55.8226 34.6915 55.5761 34.202 55.2076 33.7107C54.8444 33.2265 54.4462 32.8563 54.0128 32.6001C53.5864 32.3387 53.1382 32.1869 52.6679 32.1448C52.1995 32.0904 51.7152 32.1465 51.2152 32.3132C50.7222 32.4746 50.2335 32.7369 49.7493 33.1001Z" fill="#17161C"/>
<path d="M59.8802 32.1323L61.5073 35.082L60.3782 35.7048L55.929 27.6394L61.2752 24.6902C61.6977 24.4571 62.1136 24.3029 62.5228 24.2274C62.9278 24.1443 63.3108 24.1484 63.6718 24.2398C64.0362 24.3193 64.3749 24.4882 64.6876 24.7464C65.0081 25.0005 65.2891 25.3464 65.5306 25.7842C65.7483 26.2152 65.8749 26.6263 65.9104 27.0175C65.9458 27.4087 65.8958 27.772 65.7601 28.1073C65.6322 28.4383 65.4267 28.747 65.1438 29.0333C64.8609 29.3196 64.5121 29.5772 64.0973 29.806L59.8802 32.1323ZM59.3209 31.1183L63.4919 28.8175C63.9912 28.5421 64.3186 28.1911 64.4741 27.7647C64.6296 27.3383 64.5696 26.8754 64.2942 26.3761C64.023 25.8845 63.6635 25.5869 63.2156 25.4833C62.7635 25.372 62.2878 25.4541 61.7885 25.7295L57.6175 28.0304L59.3209 31.1183Z" fill="#17161C"/>
<path d="M76.3527 26.817L76.7798 27.8933L69.5143 30.776L66.1173 22.214L67.316 21.7384L70.286 29.224L76.3527 26.817Z" fill="#17161C"/>
<path d="M86.8845 23.9404L87.1703 25.0626L78.6522 27.2326L76.3782 18.3065L84.4755 16.2436L84.7614 17.3658L77.9138 19.1102L78.5277 21.5203L84.0875 20.1039L84.3733 21.2261L78.8136 22.6425L79.616 25.7921L86.8845 23.9404Z" fill="#17161C"/>
<path d="M100.298 21.0679C100.331 21.4789 100.279 21.866 100.141 22.2292C100.012 22.583 99.7692 22.902 99.4138 23.1861C99.0577 23.4614 98.5749 23.6942 97.9655 23.8845C97.3647 24.0741 96.6053 24.2062 95.6872 24.2807C94.7691 24.3552 94.0086 24.3113 93.4058 24.149C92.8116 23.986 92.3309 23.7566 91.9637 23.4608C91.6044 23.1555 91.3345 22.8121 91.1539 22.4307C90.9814 22.0399 90.862 21.6535 90.7958 21.2716L92.1861 21.1587C92.296 21.8627 92.638 22.3895 93.2121 22.7389C93.7942 23.0789 94.6011 23.2071 95.6329 23.1233C96.6996 23.0367 97.5291 22.8462 98.1213 22.5517C98.7215 22.2477 99.0037 21.8199 98.9677 21.2683C98.9317 20.7168 98.6287 20.3453 98.0587 20.1539C97.4887 19.9626 96.6193 19.8791 95.4507 19.9036C94.6791 19.9398 94.006 19.9416 93.4312 19.9091C92.8652 19.8758 92.3912 19.7823 92.009 19.6284C91.6269 19.4746 91.3356 19.2474 91.1352 18.9469C90.9347 18.6463 90.8139 18.2424 90.7728 17.7353C90.7422 17.3593 90.8006 16.9937 90.9478 16.6385C91.095 16.2833 91.3463 15.9636 91.7017 15.6795C92.0651 15.386 92.5381 15.1407 93.1206 14.9438C93.7024 14.7382 94.413 14.6013 95.2524 14.5331C96.153 14.46 96.8913 14.5013 97.4673 14.657C98.0519 14.812 98.5188 15.0337 98.8679 15.3222C99.2257 15.61 99.4862 15.9454 99.6493 16.3282C99.8211 16.7103 99.9401 17.0923 100.006 17.4742L98.6161 17.5871C98.5477 17.1789 98.4195 16.8461 98.2313 16.5885C98.0425 16.3222 97.8014 16.1173 97.5081 15.9739C97.2236 15.8298 96.8949 15.7376 96.5219 15.6975C96.149 15.6574 95.744 15.655 95.3068 15.6905C94.8084 15.731 94.3562 15.7985 93.9502 15.8931C93.5529 15.9869 93.211 16.1115 92.9243 16.2668C92.6457 16.4126 92.4315 16.5928 92.2817 16.8074C92.1399 17.0126 92.0804 17.255 92.1031 17.5348C92.1251 17.8059 92.2048 18.0283 92.3421 18.202C92.4875 18.3662 92.7003 18.4941 92.9806 18.5858C93.2601 18.6687 93.6123 18.7238 94.0369 18.7509C94.4696 18.7686 94.976 18.7715 95.5559 18.7596C96.3639 18.738 97.0563 18.7566 97.6332 18.8154C98.2093 18.8655 98.6892 18.9762 99.0728 19.1475C99.4563 19.3187 99.7443 19.5594 99.9367 19.8695C100.138 20.1788 100.258 20.5783 100.298 21.0679Z" fill="#17161C"/>
<path d="M104.26 20.8665L102.722 23.5665L101.291 23.478L106.39 14.5643L108.57 14.6991L112.533 24.1729L111.088 24.0836L109.895 21.2148L104.26 20.8665ZM104.909 19.7464L109.388 20.0233L107.436 15.3409L104.909 19.7464Z" fill="#17161C"/>
<path d="M122.68 25.0317L122.442 26.1649L114.587 24.5107L114.826 23.3775L118.109 24.069L118.432 22.5367L115.429 15.2747L116.962 15.5974L119.359 21.4545L123.941 17.0672L125.46 17.3872L119.683 22.854L119.371 24.3348L122.68 25.0317Z" fill="#17161C"/>
<path d="M130.584 25.8142L128.253 27.8679L126.927 27.3191L134.647 20.5461L136.665 21.3819L137.334 31.6293L135.997 31.0755L135.8 27.9744L130.584 25.8142ZM131.563 24.9659L135.708 26.683L135.384 21.6205L131.563 24.9659Z" fill="#17161C"/>
<path d="M148.118 34.8343C147.629 35.6558 147.017 36.0925 146.281 36.1445C145.558 36.1934 144.698 35.9216 143.703 35.3289L138.447 32.1973L143.161 24.2838L148.101 27.2268C148.546 27.4917 148.927 27.7598 149.246 28.0311C149.576 28.2994 149.824 28.5852 149.991 28.8886C150.162 29.1845 150.241 29.4971 150.228 29.8267C150.228 30.1531 150.113 30.5086 149.884 30.8929C149.642 31.2999 149.355 31.5837 149.025 31.7442C148.699 31.8972 148.353 31.972 147.987 31.9686C148.338 32.3918 148.532 32.829 148.569 33.2802C148.619 33.7284 148.469 34.2464 148.118 34.8343ZM142.39 28.0979L146.12 30.3203C146.445 30.5134 146.732 30.6644 146.984 30.7735C147.236 30.8825 147.458 30.9382 147.65 30.9406C147.85 30.9475 148.027 30.8996 148.18 30.7968C148.345 30.6909 148.495 30.525 148.63 30.2989C148.765 30.0728 148.831 29.8672 148.829 29.6821C148.839 29.494 148.785 29.3189 148.667 29.1568C148.561 28.9917 148.398 28.8282 148.178 28.6664C147.958 28.5046 147.693 28.3317 147.384 28.1476L143.676 25.9386L142.39 28.0979ZM140.147 31.8625L144.296 34.3341C144.681 34.563 145.011 34.7192 145.288 34.8026C145.57 34.8784 145.811 34.8942 146.011 34.85C146.223 34.8027 146.403 34.7058 146.551 34.5594C146.707 34.4175 146.848 34.241 146.974 34.03C147.104 33.8114 147.196 33.6058 147.25 33.413C147.303 33.2203 147.298 33.0232 147.234 32.8218C147.17 32.6204 147.032 32.4155 146.819 32.207C146.614 32.003 146.312 31.7821 145.912 31.5441L141.797 29.0927L140.147 31.8625Z" fill="#17161C"/>
<path d="M150.669 34.0661C151.216 33.4366 151.783 32.9703 152.369 32.6672C152.962 32.3697 153.561 32.2181 154.165 32.2125C154.782 32.2056 155.396 32.333 156.009 32.5946C156.635 32.855 157.253 33.2345 157.865 33.7332C158.477 34.2318 158.968 34.7616 159.337 35.3225C159.719 35.8821 159.965 36.4618 160.076 37.0615C160.194 37.6668 160.164 38.2872 159.986 38.9227C159.82 39.557 159.489 40.1987 158.994 40.8479L158.845 41.0315C158.309 41.6474 157.745 42.1041 157.152 42.4017C156.571 42.698 155.975 42.8462 155.364 42.8462C154.759 42.8518 154.147 42.7211 153.528 42.4539C152.909 42.199 152.294 41.8223 151.682 41.3236C151.07 40.825 150.573 40.2958 150.192 39.7362C149.811 39.1889 149.56 38.616 149.436 38.0176C149.325 37.4178 149.352 36.8008 149.518 36.1666C149.691 35.5379 150.025 34.8989 150.52 34.2498L150.669 34.0661ZM157.134 34.631C156.665 34.2487 156.186 33.9608 155.699 33.7674C155.218 33.5796 154.742 33.4973 154.271 33.5205C153.811 33.5425 153.357 33.6761 152.909 33.9215C152.472 34.1657 152.054 34.5326 151.656 35.0223C151.273 35.4916 151.007 35.9647 150.856 36.4415C150.717 36.9171 150.681 37.3853 150.747 37.8463C150.825 38.3059 151.002 38.7555 151.277 39.195C151.565 39.6333 151.944 40.0435 152.413 40.4258C152.883 40.8081 153.358 41.0932 153.838 41.2811C154.326 41.4745 154.799 41.5602 155.258 41.5382C155.73 41.515 156.181 41.3847 156.612 41.1474C157.055 40.9088 157.471 40.5514 157.859 40.0753C158.241 39.606 158.504 39.1302 158.648 38.6478C158.799 38.171 158.838 37.6993 158.765 37.2328C158.705 36.7651 158.534 36.3087 158.251 35.8637C157.976 35.4242 157.603 35.0133 157.134 34.631Z" fill="#17161C"/>
<path d="M165.881 49.5234C164.836 50.4228 163.825 50.8174 162.849 50.7074C161.878 50.5915 160.897 50.0003 159.906 48.9338C158.914 47.8673 158.396 46.8398 158.351 45.8512C158.319 44.8631 158.786 43.89 159.751 42.932L163.78 39.1864L164.658 40.1308L161.073 43.4642C160.707 43.8047 160.393 44.144 160.133 44.4821C159.872 44.8202 159.704 45.1742 159.629 45.5439C159.565 45.914 159.613 46.3068 159.772 46.7222C159.937 47.1441 160.261 47.6152 160.745 48.1356C161.229 48.656 161.672 49.0166 162.074 49.2175C162.489 49.4188 162.88 49.4982 163.248 49.4557C163.622 49.4196 163.984 49.2869 164.333 49.0575C164.689 48.8222 165.054 48.5312 165.426 48.1848L169.031 44.8335L169.909 45.7779L165.881 49.5234Z" fill="#17161C"/>
<path d="M173.211 52.0915L166.664 56.7812L165.913 55.7328L172.46 51.0432L170.077 47.7162L171.018 47.0419L176.543 54.7549L175.601 55.4292L173.211 52.0915Z" fill="#17161C"/>
<path d="M178.793 70.7621C177.529 71.3119 176.447 71.3898 175.547 70.9956C174.654 70.5976 173.892 69.7425 173.261 68.4303C172.629 67.1181 172.438 65.9832 172.688 65.0257C172.95 64.0723 173.684 63.281 174.89 62.6518L179.846 60.2664L180.405 61.4284L175.994 63.5513C175.544 63.7681 175.144 63.9995 174.795 64.2453C174.446 64.4912 174.181 64.7795 173.999 65.1102C173.829 65.4451 173.759 65.8345 173.787 66.2783C173.82 66.73 173.99 67.276 174.298 67.9163C174.606 68.5566 174.923 69.0322 175.248 69.3431C175.584 69.6582 175.935 69.8498 176.299 69.9181C176.666 69.9943 177.051 69.9746 177.453 69.859C177.863 69.7396 178.297 69.5696 178.756 69.349L183.19 67.2147L183.749 68.3767L178.793 70.7621Z" fill="#17161C"/>
<path d="M181.233 81.532C180.841 81.6608 180.452 81.7008 180.067 81.652C179.693 81.6088 179.326 81.4478 178.966 81.1689C178.615 80.8872 178.276 80.4725 177.948 79.9246C177.623 79.385 177.316 78.6777 177.029 77.8027C176.741 76.9276 176.605 76.178 176.622 75.5539C176.641 74.9381 176.752 74.417 176.953 73.9906C177.166 73.5699 177.436 73.227 177.765 72.962C178.104 72.7027 178.452 72.4961 178.807 72.3422L179.243 73.6673C178.584 73.9392 178.153 74.3951 177.947 75.0351C177.753 75.6807 177.818 76.4952 178.141 77.4786C178.475 78.4953 178.855 79.257 179.28 79.7637C179.716 80.2759 180.198 80.45 180.726 80.2857C181.254 80.1214 181.544 79.7398 181.596 79.1408C181.649 78.5418 181.526 77.6771 181.228 76.5468C181.012 75.8052 180.853 75.1512 180.75 74.5849C180.649 74.0268 180.629 73.5441 180.689 73.1365C180.749 72.7289 180.902 72.3925 181.147 72.1272C181.392 71.8619 181.757 71.6498 182.24 71.4909C182.598 71.3731 182.967 71.3442 183.347 71.404C183.727 71.4638 184.097 71.6332 184.456 71.9121C184.827 72.1966 185.176 72.599 185.504 73.1191C185.84 73.6365 186.14 74.2952 186.403 75.0953C186.685 75.9537 186.818 76.6811 186.802 77.2774C186.788 77.8821 186.682 78.388 186.483 78.795C186.287 79.2103 186.022 79.5421 185.688 79.7904C185.357 80.047 185.014 80.2522 184.658 80.4061L184.222 79.081C184.603 78.9189 184.897 78.7162 185.103 78.473C185.318 78.227 185.46 77.9446 185.531 77.6258C185.604 77.3154 185.617 76.9743 185.568 76.6023C185.52 76.2304 185.427 75.8361 185.29 75.4194C185.134 74.9443 184.963 74.5206 184.776 74.148C184.591 73.7839 184.39 73.4806 184.172 73.2384C183.965 73.0017 183.739 72.8357 183.496 72.7404C183.263 72.6506 183.013 72.6496 182.747 72.7373C182.488 72.8222 182.291 72.9517 182.154 73.1259C182.028 73.3057 181.954 73.5426 181.931 73.8366C181.915 74.1278 181.944 74.483 182.018 74.9022C182.102 75.327 182.218 75.8199 182.365 76.3809C182.576 77.1614 182.72 77.8389 182.798 78.4134C182.884 78.9853 182.889 79.4777 182.812 79.8907C182.736 80.3038 182.569 80.6401 182.313 80.8999C182.06 81.1679 181.699 81.3786 181.233 81.532Z" fill="#17161C"/>
<path d="M185.302 90.2989L184.33 90.469L183.448 85.4267L184.42 85.2567L185.302 90.2989Z" fill="#17161C"/>
<path d="M67.5294 102.364C86.8258 102.354 102.463 86.6306 102.463 67.2384C102.463 86.6306 118.1 102.337 137.397 102.327C118.1 102.337 102.463 118.06 102.463 137.453C102.463 118.06 86.8258 102.354 67.5294 102.364Z" fill="#5CE1E6"/>
</svg>
