<svg width="40" height="40" viewBox="0 0 40 40" fill="none" xmlns="http://www.w3.org/2000/svg">
<g clip-path="url(#clip0_150_187)">
<path d="M30.6785 0.182129H9.32056C4.27327 0.182129 0.181641 4.27376 0.181641 9.32105V30.679C0.181641 35.7263 4.27327 39.8179 9.32056 39.8179H30.6785C35.7258 39.8179 39.8174 35.7263 39.8174 30.679V9.32105C39.8174 4.27376 35.7258 0.182129 30.6785 0.182129Z" fill="#D9D9D9"/>
<path d="M26.3925 8.00178C27.8972 8.00784 29.3385 8.60826 30.4025 9.67223C31.4665 10.7362 32.0669 12.1775 32.0729 13.6822V26.318C32.0669 27.8226 31.4665 29.264 30.4025 30.3279C29.3385 31.3919 27.8972 31.9923 26.3925 31.9984H13.6085C12.1038 31.9923 10.6625 31.3919 9.5985 30.3279C8.53453 29.264 7.93411 27.8226 7.92805 26.318V13.6822C7.93411 12.1775 8.53453 10.7362 9.5985 9.67223C10.6625 8.60826 12.1038 8.00784 13.6085 8.00178H26.3925ZM26.3925 5.35974H13.6085C9.03089 5.35974 5.28516 9.10974 5.28516 13.683V26.318C5.28516 30.8955 9.03516 34.6413 13.6085 34.6413H26.3925C30.9701 34.6413 34.7158 30.8913 34.7158 26.318V13.6822C34.7158 9.10462 30.9701 5.35889 26.3925 5.35889V5.35974Z" fill="#17161C"/>
<path d="M20.0001 15.0679C20.9755 15.0679 21.9291 15.3572 22.7402 15.8992C23.5513 16.4411 24.1834 17.2114 24.5567 18.1126C24.93 19.0138 25.0277 20.0055 24.8374 20.9623C24.6471 21.919 24.1773 22.7978 23.4876 23.4876C22.7978 24.1773 21.919 24.6471 20.9623 24.8374C20.0055 25.0277 19.0138 24.93 18.1126 24.5567C17.2114 24.1834 16.4411 23.5513 15.8992 22.7402C15.3572 21.9291 15.068 20.9755 15.068 20.0001C15.0695 18.6925 15.5897 17.4389 16.5143 16.5143C17.4389 15.5897 18.6925 15.0695 20.0001 15.0679ZM20.0001 12.4259C18.502 12.4259 17.0376 12.8701 15.7921 13.7024C14.5465 14.5346 13.5757 15.7176 13.0025 17.1015C12.4292 18.4855 12.2792 20.0085 12.5714 21.4777C12.8637 22.9469 13.5851 24.2965 14.6443 25.3558C15.7036 26.415 17.0532 27.1364 18.5224 27.4287C19.9917 27.7209 21.5146 27.5709 22.8986 26.9977C24.2825 26.4244 25.4655 25.4536 26.2977 24.208C27.13 22.9625 27.5742 21.4981 27.5742 20.0001C27.5742 17.9913 26.7762 16.0647 25.3558 14.6443C23.9354 13.2239 22.0088 12.4259 20.0001 12.4259Z" fill="#17161C"/>
<path d="M27.7391 13.8892C28.7309 13.8892 29.5348 13.0852 29.5348 12.0935C29.5348 11.1017 28.7309 10.2977 27.7391 10.2977C26.7473 10.2977 25.9434 11.1017 25.9434 12.0935C25.9434 13.0852 26.7473 13.8892 27.7391 13.8892Z" fill="#17161C"/>
</g>
<defs>
<clipPath id="clip0_150_187">
<rect width="40" height="40" fill="white"/>
</clipPath>
</defs>
</svg>
