<svg width="40" height="40" viewBox="0 0 40 40" fill="none" xmlns="http://www.w3.org/2000/svg">
<g id="_1-facebook" clip-path="url(#clip0_150_192)">
<path id="Vector" d="M33 0H7C3.13401 0 0 3.13401 0 7V33C0 36.866 3.13401 40 7 40H33C36.866 40 40 36.866 40 33V7C40 3.13401 36.866 0 33 0Z" fill="#D9D9D9"/>
<path id="Vector_2" d="M34 18.5H27.75V13.75C27.75 12.5875 29.0875 12.5 29.5 12.5H33.75V6H29.5C24.7937 6 21.25 9.33125 21.25 13.75V18.5H16V25H21.25V40H27.75V25H33L34 18.5Z" fill="#17161C"/>
</g>
<defs>
<clipPath id="clip0_150_192">
<rect width="40" height="40" fill="white"/>
</clipPath>
</defs>
</svg>
