<svg width="40" height="40" viewBox="0 0 40 40" fill="none" xmlns="http://www.w3.org/2000/svg">
<g clip-path="url(#clip0_150_180)">
<path d="M35 0H5C2.23858 0 0 2.23858 0 5V35C0 37.7614 2.23858 40 5 40H35C37.7614 40 40 37.7614 40 35V5C40 2.23858 37.7614 0 35 0Z" fill="#D9D9D9"/>
<path d="M11.4698 13.9585H4.76978V34.1118H11.4698V13.9585Z" fill="#17161C"/>
<path d="M8.16504 4.24072C5.87271 4.24072 4.375 5.74778 4.375 7.72304C4.375 9.65679 5.82719 11.2054 8.07631 11.2054H8.11964C10.4558 11.2054 11.9099 9.65679 11.9099 7.72304C11.8666 5.74778 10.4559 4.24072 8.16504 4.24072Z" fill="#17161C"/>
<path d="M27.9133 13.4846C24.3593 13.4846 22.7674 15.4391 21.876 16.8119V13.9585H15.1777C15.2666 15.8489 15.1777 34.1118 15.1777 34.1118H21.8759V22.8568C21.8759 22.2543 21.9193 21.6521 22.0969 21.2215C22.5802 20.0184 23.6832 18.7721 25.5338 18.7721C27.9566 18.7721 28.9272 20.6209 28.9272 23.329V34.1118H35.6258V22.5548C35.6258 16.3644 32.3207 13.4846 27.9133 13.4846Z" fill="#17161C"/>
</g>
<defs>
<clipPath id="clip0_150_180">
<rect width="40" height="40" fill="white"/>
</clipPath>
</defs>
</svg>
