<svg width="237" height="237" viewBox="0 0 237 237" fill="none" xmlns="http://www.w3.org/2000/svg">
<path d="M202.951 134.523L202.949 134.52C199.993 131.402 196.074 128.94 191.117 127.157L191.116 127.157C186.225 125.394 179.826 124.456 171.8 124.456H160.775H159.121L159.282 122.81C160.633 108.979 165.581 97.1396 174.142 87.3471L174.143 87.3459C182.357 77.9698 193.601 69.7492 207.794 62.6739L200.438 51.2576C181.668 59.4426 165.593 71.2627 152.194 86.796L152.193 86.7966C138.509 102.644 131.84 118.198 131.84 133.488C131.84 150.189 135.771 163.075 143.526 172.309L202.951 134.523ZM202.951 134.523C205.821 137.533 207.845 140.867 209.024 144.468C210.21 148.15 210.812 151.968 210.812 155.879C210.812 163.871 207.522 170.903 200.766 176.999L200.765 177M202.951 134.523L200.765 177M200.765 177C194.023 183.093 186.102 186.118 176.97 186.118C162.298 186.118 151.236 181.484 143.526 172.309L200.765 177ZM108.309 144.468L108.31 144.47C109.508 148.146 110.097 151.963 110.097 155.879C110.097 163.871 106.807 170.903 100.051 176.999L100.05 177C93.3074 183.093 85.4013 186.118 76.2498 186.118C61.5778 186.118 50.5159 181.484 42.8165 172.31L41.6675 173.274L42.8165 172.31C35.0654 163.075 31.125 150.188 31.125 133.488C31.125 118.198 37.7985 102.644 51.4735 86.7962C64.8774 71.2628 80.9573 59.4425 99.7186 51.2574L107.088 62.6741C92.8858 69.7498 81.6609 77.9703 73.4384 87.3453L73.4371 87.3467C64.8708 97.1397 59.9278 108.98 58.5865 122.811L58.427 124.456H60.0795H71.0902C79.1099 124.456 85.5095 125.394 90.4217 127.157C95.3531 128.94 99.2781 131.402 102.244 134.52C105.103 137.535 107.141 140.87 108.309 144.468Z" stroke="#F05D23" stroke-width="3"/>
</svg>
